<svg width="57" height="74" viewBox="0 0 57 74" fill="none" xmlns="http://www.w3.org/2000/svg">
<path d="M10.2001 0.199951C9.31884 0.199951 8.60009 0.918702 8.60009 1.79995V8.19995C8.60009 21.7812 6.62509 31.2062 4.67509 37.2062C2.73134 43.2062 0.912593 45.6562 0.912593 45.6562C0.556342 46.1437 0.500092 46.7875 0.775092 47.325C1.05009 47.8625 1.60009 48.2 2.20009 48.2H43.8001C44.3126 48.2 44.7938 47.9562 45.1001 47.5375C45.1001 47.5375 47.2688 44.4937 49.3251 38.1437C49.6188 37.2312 49.9126 36.225 50.2001 35.1687V54.6H11.8001V49.8H8.60009V54.6H5.40009V57.8H27.9251L18.4938 71.2812C18.1438 71.75 18.0751 72.3687 18.3188 72.9C18.5563 73.425 19.0688 73.7875 19.6501 73.8312C20.2313 73.875 20.7876 73.6062 21.1063 73.1187L31.0001 58.9937L40.8938 73.1187C41.2126 73.6062 41.7688 73.875 42.3501 73.8312C42.9313 73.7875 43.4438 73.425 43.6813 72.9C43.9251 72.3687 43.8563 71.75 43.5063 71.2812L34.0751 57.8H51.5313C51.7063 57.8312 51.8813 57.8312 52.0501 57.8H56.6001V54.6H53.4001V1.79995C53.4001 0.918702 52.6813 0.199951 51.8001 0.199951H10.2001ZM11.8001 3.39995H50.2001V6.59995H11.8001V3.39995ZM11.6876 9.79995H50.0876C49.9188 22.325 48.1376 31.4125 46.2751 37.1562C44.6563 42.175 43.3563 44.2875 42.8876 45H4.93759C5.72509 43.4562 6.73134 41.25 7.72509 38.1937C9.68134 32.1437 11.5188 22.7125 11.6876 9.79995Z" fill="#E1E0E2"/>
</svg>
