<?xml version="1.0" encoding="UTF-8"?>
<svg id="Layer_2" data-name="Layer 2" xmlns="http://www.w3.org/2000/svg" viewBox="0 0 152.22 41.87">
  <defs>
    <style>
      .cls-1 {
        fill: #e1e0e2;
      }
    </style>
  </defs>
  <g id="Layer_1-2" data-name="Layer 1">
    <path class="cls-1" d="m142.22,1c4.96,0,9,4.04,9,9v21.87c0,4.96-4.04,9-9,9h-21.87c-4.96,0-9-4.04-9-9V10c0-4.96,4.04-9,9-9h21.87m0-1h-21.87c-5.52,0-10,4.48-10,10v21.87c0,5.52,4.48,10,10,10h21.87c5.52,0,10-4.48,10-10V10c0-5.52-4.48-10-10-10h0Z"/>
    <path class="cls-1" d="m87.05,1c4.96,0,9,4.04,9,9v21.87c0,4.96-4.04,9-9,9h-21.87c-4.96,0-9-4.04-9-9V10c0-4.96,4.04-9,9-9h21.87m0-1h-21.87c-5.52,0-10,4.48-10,10v21.87c0,5.52,4.48,10,10,10h21.87c5.52,0,10-4.48,10-10V10c0-5.52-4.48-10-10-10h0Z"/>
    <path class="cls-1" d="m31.87,1c4.96,0,9,4.04,9,9v21.87c0,4.96-4.04,9-9,9H10c-4.96,0-9-4.04-9-9V10C1,5.04,5.04,1,10,1h21.87m0-1H10C4.48,0,0,4.48,0,10v21.87c0,5.52,4.48,10,10,10h21.87c5.52,0,10-4.48,10-10V10c0-5.52-4.48-10-10-10h0Z"/>
    <path class="cls-1" d="m16.41,9.86c-3.61,0-6.54,2.94-6.54,6.54v9.06c0,3.61,2.94,6.54,6.54,6.54h9.06c3.61,0,6.54-2.94,6.54-6.54v-9.06c0-3.61-2.94-6.54-6.54-6.54h-9.06Zm0,1.01h9.06c3.06,0,5.54,2.47,5.54,5.54v9.06c0,3.06-2.47,5.54-5.54,5.54h-9.06c-3.06,0-5.54-2.47-5.54-5.54v-9.06c0-3.06,2.47-5.54,5.54-5.54Zm10.57,3.02c-.56,0-1.01.45-1.01,1.01s.45,1.01,1.01,1.01,1.01-.45,1.01-1.01-.45-1.01-1.01-1.01Zm-6.04,1.51c-3.05,0-5.54,2.48-5.54,5.54s2.48,5.54,5.54,5.54,5.54-2.48,5.54-5.54-2.48-5.54-5.54-5.54Zm0,1.01c2.51,0,4.53,2.02,4.53,4.53s-2.02,4.53-4.53,4.53-4.53-2.02-4.53-4.53,2.02-4.53,4.53-4.53Z"/>
    <path class="cls-1" d="m72.31,12.46c-.08,0-.17.01-.25.03-1.06.21-2.15.57-3.26,1.02-.57.23-1.05.62-1.39,1.14-2.55,3.85-3.27,7.84-2.85,11.83.02.15.1.29.23.37,1.59,1,3.24,1.88,4.98,2.48.66.23,1.39-.04,1.77-.62l.83-1.27c.36.1.73.18,1.1.26.85.21,1.73.32,2.64.32s1.84-.12,2.71-.34c.34-.07.68-.15,1.01-.24l.87,1.29c.38.57,1.11.83,1.76.6,1.74-.6,3.39-1.48,4.99-2.49.13-.08.22-.22.23-.37.42-4-.3-7.98-2.84-11.83,0,0,0,0,0,0h0s0,0,0,0c-.34-.51-.82-.91-1.39-1.13-1.11-.44-2.2-.81-3.26-1.02-.67-.13-1.34.21-1.65.82l-.09.18c-.64-.07-1.33-.13-2.31-.11-.98-.02-1.67.03-2.31.11l-.09-.18s0,0,0,0c-.27-.53-.82-.86-1.4-.85Zm.11,1.01c.16.02.31.12.4.3l.24.47c.1.19.31.3.52.27.65-.09,1.43-.14,2.53-.12,0,0,.02,0,.02,0,1.1-.03,1.88.03,2.53.12.21.03.42-.08.52-.27l.24-.47c.12-.23.34-.33.56-.29.97.19,2.01.53,3.08.96.38.15.7.41.93.76,0,0,0,0,0,0h0c2.37,3.58,3.04,7.21,2.69,10.93-1.48.92-2.99,1.72-4.56,2.26-.22.08-.45,0-.59-.21l-.79-1.17c.3-.14.59-.28.87-.44.25-.13.34-.43.21-.68-.13-.25-.43-.34-.68-.21-.01,0-.02.01-.03.02-.87.5-1.82.86-2.81,1.09-.7.13-1.43.21-2.2.22-.74-.02-1.44-.09-2.13-.21-1.02-.22-1.98-.59-2.87-1.1-.07-.04-.16-.07-.24-.07-.28,0-.51.21-.52.49,0,.19.09.37.26.46.28.16.57.3.86.44l-.76,1.17c-.14.22-.38.29-.6.22-1.56-.54-3.07-1.34-4.55-2.25-.35-3.72.32-7.35,2.69-10.93.23-.34.55-.6.93-.76,1.07-.43,2.11-.77,3.08-.96.06-.01.11-.01.17,0Zm7.02,5.33c-.96,0-1.75,1.03-1.75,2.28s.79,2.28,1.75,2.28,1.75-1.03,1.75-2.28-.79-2.28-1.75-2.28Zm-6.54.04c-.97,0-1.77,1.02-1.77,2.26s.8,2.26,1.77,2.26,1.77-1.02,1.77-2.26-.8-2.26-1.77-2.26Z"/>
    <path class="cls-1" d="m118.71,11.88v18.12h25.16V11.88h-25.16Zm1.01,1.01h23.15v1.27l-11.57,9.15-11.57-9.15v-1.27Zm0,2.56l11.26,8.9c.18.15.44.15.63,0l11.26-8.9v13.54h-23.15v-13.54Z"/>
  </g>
</svg>