<svg width="356" height="129" viewBox="0 0 356 129" fill="none" xmlns="http://www.w3.org/2000/svg">
<path d="M19.72 80.08C14.664 80.08 10.248 78.288 6.472 74.704C2.696 71.056 0.808 66.672 0.808 61.552C0.808 56.24 2.792 51.664 6.76 47.824C10.856 43.856 15.496 41.872 20.68 41.872C24.648 41.872 27.848 43.088 30.28 45.52C32.584 47.888 33.736 51.12 33.736 55.216C33.736 58.224 32.392 60.976 29.704 63.472C27.08 65.904 24.264 67.12 21.256 67.12C18.76 67.12 16.584 66.544 14.728 65.392C12.552 64.048 11.464 62.16 11.464 59.728C11.464 58.576 11.784 57.456 12.424 56.368C13.128 55.024 13.992 54.352 15.016 54.352C15.272 54.352 15.4 54.448 15.4 54.64C15.4 54.704 15.112 54.992 14.536 55.504C13.96 56.08 13.576 56.56 13.384 56.944C13 57.776 12.808 58.672 12.808 59.632C12.808 61.616 13.544 63.248 15.016 64.528C16.488 65.808 18.184 66.448 20.104 66.448C23.304 66.448 25.96 65.104 28.072 62.416C30.056 59.984 31.048 57.104 31.048 53.776C31.048 50.384 30.12 47.728 28.264 45.808C26.408 43.76 23.816 42.736 20.488 42.736C15.496 42.736 11.432 44.528 8.296 48.112C5.352 51.44 3.88 55.664 3.88 60.784C3.88 68.4 7.304 73.808 14.152 77.008C16.456 78.032 18.696 78.544 20.872 78.544H21.928C23.208 78.352 24.392 78.064 25.48 77.68C26.632 77.296 27.656 76.88 28.552 76.432C31.688 74.768 34.664 72.176 37.48 68.656C40.296 65.136 42.984 60.72 45.544 55.408C47.784 50.672 51.144 41.936 55.624 29.2C57.672 23.504 60.488 18.192 64.072 13.264C68.232 7.632 72.648 3.728 77.32 1.552C69 1.552 62.376 2.416 57.448 4.144C50.344 6.576 45.768 10.96 43.72 17.296C43.464 18.128 43.336 19.024 43.336 19.984C43.336 21.52 43.816 22.832 44.776 23.92C45.736 25.008 47.016 25.552 48.616 25.552C51.752 25.552 53.928 23.536 55.144 19.504C55.4 18.8 55.528 18.256 55.528 17.872V17.104C55.464 16.912 55.432 16.72 55.432 16.528C55.496 16.4 55.592 16.336 55.72 16.336C55.976 16.336 56.104 16.752 56.104 17.584C56.104 20.016 55.4 22.064 53.992 23.728C52.456 25.52 50.536 26.416 48.232 26.416C46.12 26.416 44.456 25.712 43.24 24.304C42.024 23.024 41.416 21.328 41.416 19.216C41.416 18.832 41.416 18.48 41.416 18.16C41.48 17.776 41.544 17.456 41.608 17.2C42.888 10.928 47.4 6.352 55.144 3.472C60.904 1.424 67.656 0.399998 75.4 0.399998C78.472 0.399998 80.104 0.495998 80.296 0.688C80.04 0.751999 79.624 0.943998 79.048 1.264C78.536 1.52 77.864 2 77.032 2.704C70.248 8.08 65.256 16.144 62.056 26.896C57.96 40.464 53.64 51.056 49.096 58.672C41.992 70.512 33.512 77.52 23.656 79.696C23.016 79.76 22.376 79.824 21.736 79.888C21.096 80.016 20.424 80.08 19.72 80.08ZM75.331 58.864C72.515 58.864 70.371 57.648 68.899 55.216C67.555 53.168 66.883 50.672 66.883 47.728C66.883 42.672 68.483 37.968 71.683 33.616C75.203 28.88 79.427 26.512 84.355 26.512C86.851 26.512 88.771 27.376 90.115 29.104C91.395 30.768 92.035 32.88 92.035 35.44C92.035 36.592 91.907 37.776 91.651 38.992C91.459 40.208 91.139 41.488 90.691 42.832C89.731 45.648 88.547 47.856 87.139 49.456L87.331 49.744C87.971 50.192 88.739 50.416 89.635 50.416C91.491 50.416 93.059 49.808 94.339 48.592C95.619 47.376 97.059 45.2 98.659 42.064C98.723 41.808 98.851 41.68 99.043 41.68C99.171 41.68 99.267 41.776 99.331 41.968C99.395 42.096 99.363 42.288 99.235 42.544C97.891 45.36 96.451 47.504 94.915 48.976C93.443 50.448 91.715 51.184 89.731 51.184C88.451 51.184 87.459 50.832 86.755 50.128C86.115 51.28 85.411 52.368 84.643 53.392C83.875 54.352 83.011 55.216 82.051 55.984C79.875 57.904 77.635 58.864 75.331 58.864ZM76.003 58.096C79.395 58.096 82.723 55.504 85.987 50.32C85.987 50.128 86.083 49.936 86.275 49.744C85.123 47.824 84.547 46 84.547 44.272C84.547 44.208 84.547 44.08 84.547 43.888C84.547 43.632 84.579 43.312 84.643 42.928C84.707 42.224 84.835 41.52 85.027 40.816C85.219 40.048 85.539 39.344 85.987 38.704C86.947 37.168 88.099 36.4 89.443 36.4H90.307C90.563 36.464 90.755 36.496 90.883 36.496C91.011 36.496 91.107 36.496 91.171 36.496C91.171 30.736 89.347 27.856 85.699 27.856C82.627 27.856 79.715 29.712 76.963 33.424C74.723 36.368 73.123 39.664 72.163 43.312C71.587 45.296 71.299 47.376 71.299 49.552C71.299 55.248 72.867 58.096 76.003 58.096ZM113.658 21.52C111.61 21.52 110.586 20.528 110.586 18.544C110.586 16.368 111.578 15.28 113.562 15.28C115.61 15.28 116.634 16.272 116.634 18.256C116.634 20.432 115.642 21.52 113.658 21.52ZM102.33 58.96C98.1063 58.96 95.9943 56.624 95.9943 51.952C95.9943 48.56 96.9863 44.976 98.9703 41.2L106.17 27.088H106.458C106.65 27.344 107.034 27.472 107.61 27.472C108.826 27.472 110.426 26.736 112.41 25.264L112.602 25.456L104.442 41.296C101.05 47.824 99.3543 52.368 99.3543 54.928C99.3543 56.08 99.6743 56.88 100.314 57.328C100.954 57.776 101.69 58 102.522 58C103.418 58 104.282 57.808 105.114 57.424C106.01 57.04 106.778 56.624 107.418 56.176C109.146 54.832 110.586 53.296 111.738 51.568C112.954 49.776 114.01 47.984 114.906 46.192C115.802 44.4 116.602 42.896 117.306 41.68C117.498 41.36 117.69 41.264 117.882 41.392C118.074 41.456 118.106 41.648 117.978 41.968C116.698 44.656 115.29 47.408 113.754 50.224C112.218 53.04 110.266 55.28 107.898 56.944C107.066 57.52 106.17 58 105.21 58.384C104.314 58.768 103.354 58.96 102.33 58.96ZM109.087 61.264L108.991 61.072C111.295 56.08 114.271 49.168 117.919 40.336C118.495 38.864 119.167 37.04 119.935 34.864C120.767 32.688 121.695 30.16 122.719 27.28H122.911C123.551 27.792 124.095 28.048 124.543 28.048C126.143 28.048 127.647 26.672 129.055 23.92V24.016C129.055 24.144 127.647 27.568 124.831 34.288C123.295 37.936 122.143 40.72 121.375 42.64C120.607 44.56 120.159 45.648 120.031 45.904C127.327 32.784 133.151 26.224 137.503 26.224C138.463 26.224 139.327 26.544 140.095 27.184C140.863 27.824 141.247 28.656 141.247 29.68C141.247 32.368 139.423 36.784 135.775 42.928C132.127 49.072 130.303 53.264 130.303 55.504C130.303 56.336 130.623 56.976 131.263 57.424C131.903 57.872 132.671 58.096 133.567 58.096C134.463 58.096 135.391 57.904 136.351 57.52C137.311 57.136 138.111 56.72 138.751 56.272C140.479 54.928 141.951 53.36 143.167 51.568C144.383 49.776 145.439 47.984 146.335 46.192C147.231 44.4 148.031 42.896 148.735 41.68C148.927 41.36 149.119 41.264 149.311 41.392C149.503 41.456 149.535 41.648 149.407 41.968C148.127 44.656 146.719 47.408 145.183 50.224C143.647 53.04 141.695 55.28 139.327 56.944C138.495 57.52 137.567 58 136.543 58.384C135.583 58.768 134.559 58.96 133.471 58.96C131.679 58.96 130.207 58.48 129.055 57.52C127.967 56.56 127.423 55.088 127.423 53.104C127.423 49.648 129.023 45.296 132.223 40.048C135.487 34.672 137.119 31.28 137.119 29.872C137.119 28.784 136.511 28.24 135.295 28.24H134.719C133.311 28.24 131.391 29.872 128.959 33.136C126.527 36.336 123.583 41.072 120.127 47.344C119.295 48.752 118.431 50.384 117.535 52.24C116.703 54.032 115.807 56.048 114.847 58.288L114.655 58.384C113.887 58 113.215 57.808 112.639 57.808C111.807 57.808 111.103 58.32 110.527 59.344C110.015 60.432 109.535 61.072 109.087 61.264ZM165.379 58.576C163.779 58.576 162.499 58.032 161.539 56.944C160.643 55.856 160.195 54.544 160.195 53.008C160.195 51.6 160.611 49.744 161.443 47.44C162.339 45.136 163.587 42.384 165.187 39.184C165.891 37.776 166.787 36.08 167.875 34.096C169.027 32.048 170.403 29.712 172.003 27.088H172.195C172.643 27.408 173.155 27.568 173.731 27.568C175.075 27.568 176.611 26.896 178.339 25.552L178.531 25.744C177.571 26.832 175.907 29.488 173.539 33.712C172.771 35.056 172.035 36.304 171.331 37.456C170.691 38.608 170.051 39.696 169.411 40.72C165.635 47.184 163.747 51.92 163.747 54.928C163.747 56.656 164.547 57.52 166.147 57.52C169.731 57.52 174.691 51.92 181.027 40.72C181.923 39.12 182.979 37.136 184.195 34.768C185.411 32.4 186.819 29.648 188.419 26.512H188.611C189.059 26.704 189.475 26.864 189.859 26.992C190.243 27.12 190.627 27.184 191.011 27.184C192.419 27.184 193.411 26.544 193.987 25.264L194.275 25.36L186.787 39.856C182.371 48.304 180.163 53.648 180.163 55.888C180.163 57.04 180.707 57.616 181.795 57.616C182.563 57.616 183.491 57.296 184.579 56.656C185.731 56.016 186.915 55.024 188.131 53.68C189.667 51.888 190.979 50.192 192.067 48.592C193.219 46.928 194.531 44.688 196.003 41.872C196.195 41.552 196.387 41.392 196.579 41.392C196.963 41.392 196.963 41.712 196.579 42.352C195.427 44.528 194.179 46.704 192.835 48.88C191.555 50.992 189.987 52.976 188.131 54.832C185.699 57.264 183.555 58.48 181.699 58.48C180.035 58.48 178.755 58.064 177.859 57.232C177.027 56.4 176.611 55.056 176.611 53.2C176.611 51.664 176.931 49.968 177.571 48.112C173.283 55.088 169.219 58.576 165.379 58.576ZM201.757 59.152C195.293 59.152 192.061 56.08 192.061 49.936C192.061 48.208 192.349 46.352 192.925 44.368V44.464C193.245 43.312 193.853 42.192 194.749 41.104C195.837 39.76 196.829 39.088 197.725 39.088C197.725 39.088 197.821 39.088 198.013 39.088C198.205 39.088 198.525 39.152 198.973 39.28L200.029 37.648C200.925 36.304 201.725 34.96 202.429 33.616C203.197 32.208 203.997 30.832 204.829 29.488C207.197 25.392 208.989 23.184 210.205 22.864C210.589 22.736 210.877 22.672 211.069 22.672C212.029 22.672 212.509 23.024 212.509 23.728C212.509 24.56 211.805 25.072 210.397 25.264C209.117 25.456 208.317 25.616 207.997 25.744C207.485 26.128 207.229 26.96 207.229 28.24C207.229 29.584 208.093 31.856 209.821 35.056C211.549 38.192 212.413 40.976 212.413 43.408C212.413 44.048 212.349 44.656 212.221 45.232C212.157 45.808 212.061 46.416 211.933 47.056C210.205 54.288 205.629 57.904 198.205 57.904C199.677 58.224 201.021 58.384 202.237 58.384C204.477 58.384 206.653 58 208.765 57.232C210.877 56.4 212.829 55.28 214.621 53.872C216.477 52.4 218.173 50.64 219.709 48.592C221.309 46.48 222.685 44.24 223.837 41.872C224.029 41.488 224.221 41.296 224.413 41.296C224.797 41.296 224.829 41.616 224.509 42.256C223.485 44.176 222.397 46 221.245 47.728C220.157 49.392 218.973 50.896 217.693 52.24C216.157 53.776 214.077 55.312 211.453 56.848C208.829 58.384 205.597 59.152 201.757 59.152ZM197.533 57.136C200.797 57.136 203.485 54.672 205.597 49.744C207.325 45.904 208.189 42.032 208.189 38.128C208.189 37.616 208.093 36.944 207.901 36.112C207.773 35.216 207.549 34.16 207.229 32.944C206.973 31.792 206.781 30.8 206.653 29.968C206.525 29.072 206.493 28.304 206.557 27.664C205.341 30.096 204.125 32.304 202.909 34.288C201.693 36.272 200.541 38.064 199.453 39.664C199.773 40.176 199.933 40.688 199.933 41.2C199.933 42.096 199.581 43.088 198.877 44.176C198.429 44.816 197.661 45.424 196.573 46C195.485 46.576 194.717 47.12 194.269 47.632C193.565 48.656 193.213 50 193.213 51.664C193.213 55.312 194.653 57.136 197.533 57.136ZM229.273 59.056C227.161 59.056 226.105 58.032 226.105 55.984C226.105 53.68 227.257 52.528 229.561 52.528C231.673 52.528 232.729 53.552 232.729 55.6C232.729 57.904 231.577 59.056 229.273 59.056ZM89.9545 128.24C83.4905 128.24 76.9625 126.352 70.3705 122.576C66.3385 124.432 62.4985 125.36 58.8505 125.36C55.3305 125.36 51.8745 124.592 48.4825 123.056C44.3865 121.072 42.3385 118.512 42.3385 115.376C42.3385 113.2 43.2025 111.44 44.9305 110.096C46.5305 108.88 48.4505 108.272 50.6905 108.272C56.0665 108.272 61.0585 110.352 65.6665 114.512C66.8185 115.6 67.8425 116.528 68.7385 117.296C69.6345 118.064 70.4025 118.704 71.0425 119.216C74.1145 116.72 77.1225 113.008 80.0665 108.08C81.2825 105.968 82.4665 103.856 83.6185 101.744C84.7705 99.632 85.9225 97.52 87.0745 95.408C81.4425 95.024 76.4825 93.648 72.1945 91.28C66.6905 88.272 63.9385 84.304 63.9385 79.376C63.9385 75.536 65.2825 72.272 67.9705 69.584C70.6585 66.896 73.9225 65.552 77.7625 65.552C80.1945 65.552 82.3065 66.16 84.0985 67.376C86.0825 68.848 87.0745 70.736 87.0745 73.04C87.0745 73.936 86.7865 74.384 86.2105 74.384C85.9545 74.384 85.8265 73.872 85.8265 72.848C85.8265 72.72 85.7945 72.528 85.7305 72.272C85.6665 72.016 85.5705 71.696 85.4425 71.312C84.2905 68.048 81.7625 66.416 77.8585 66.416C74.6585 66.416 71.8745 67.792 69.5065 70.544C67.2025 73.232 66.0505 76.176 66.0505 79.376C66.0505 83.984 68.6105 87.696 73.7305 90.512C77.7625 92.752 82.4025 94.032 87.6505 94.352C89.6985 90.768 91.7785 87.504 93.8905 84.56C96.0665 81.552 98.2425 78.832 100.419 76.4C106.947 69.232 112.867 65.648 118.179 65.648C120.035 65.648 121.603 66.064 122.883 66.896C124.355 67.856 125.091 69.2 125.091 70.928C125.091 73.424 123.619 76.496 120.675 80.144C119.587 81.488 118.403 82.768 117.123 83.984C115.843 85.2 114.467 86.352 112.995 87.44C111.779 88.4 110.499 89.264 109.155 90.032C107.875 90.8 106.531 91.536 105.123 92.24C102.051 93.712 98.5625 94.672 94.6585 95.12C91.9705 101.264 89.1545 106.192 86.2105 109.904C82.6905 114.384 78.4025 118.064 73.3465 120.944C79.2985 125.168 85.0265 127.28 90.5305 127.28C93.4745 127.28 96.0345 126.704 98.2105 125.552C100.899 124.08 102.243 122 102.243 119.312C102.243 118.928 102.371 118.736 102.627 118.736C102.883 118.736 103.01 118.96 103.01 119.408V119.696C103.01 122.512 101.826 124.624 99.4585 126.032C97.1545 127.504 93.9865 128.24 89.9545 128.24ZM95.2345 93.872C96.8345 93.616 98.4025 93.296 99.9385 92.912C101.475 92.528 102.979 92.048 104.451 91.472C105.731 90.96 106.979 90.352 108.195 89.648C109.411 88.944 110.627 88.144 111.843 87.248C114.595 85.2 117.091 82.768 119.331 79.952C122.275 76.432 123.747 73.424 123.747 70.928C123.747 68.88 122.691 67.856 120.579 67.856C118.851 67.856 116.803 68.464 114.435 69.68C110.659 71.664 107.267 74.48 104.259 78.128C101.251 81.776 98.5945 86.224 96.2905 91.472L95.2345 93.872ZM57.8905 124.112C61.7305 124.112 65.1865 123.184 68.2585 121.328C66.5945 120.24 64.9305 119.152 63.2665 118.064C61.6025 116.976 59.9385 115.92 58.2745 114.896C53.5385 111.952 50.0505 110.48 47.8105 110.48C44.9305 110.48 43.4905 111.792 43.4905 114.416C43.4905 116.976 44.8985 119.216 47.7145 121.136C50.0825 122.736 52.6425 123.696 55.3945 124.016C55.8425 124.08 56.2585 124.112 56.6425 124.112C57.0905 124.112 57.5065 124.112 57.8905 124.112ZM115.898 122.96C112.762 122.96 110.586 122.096 109.37 120.368C108.154 118.576 107.546 116.08 107.546 112.88C107.546 108.272 109.466 103.472 113.306 98.48C117.402 93.232 121.658 90.608 126.074 90.608C129.338 90.608 130.97 91.728 130.97 93.968C130.97 96.72 129.466 99.6 126.458 102.608C122.17 106.96 117.658 109.136 112.922 109.136C112.154 111.12 111.77 113.104 111.77 115.088C111.77 117.264 112.186 118.96 113.018 120.176C113.85 121.392 115.066 122 116.666 122C118.33 122 120.058 121.552 121.85 120.656C123.642 119.696 125.178 118.576 126.458 117.296C127.546 116.208 128.762 114.736 130.106 112.88C131.514 110.96 132.922 108.624 134.33 105.872C134.522 105.552 134.714 105.392 134.906 105.392C135.29 105.392 135.29 105.712 134.906 106.352C133.818 108.528 132.634 110.608 131.354 112.592C130.138 114.576 128.506 116.496 126.458 118.352C125.242 119.568 123.706 120.656 121.85 121.616C119.994 122.512 118.01 122.96 115.898 122.96ZM113.018 108.464C116.538 108.464 120.474 106.576 124.826 102.8V102.704C126.042 101.68 127.194 100.272 128.282 98.48C129.562 96.496 130.202 94.8 130.202 93.392C130.202 92.368 129.434 91.856 127.898 91.856C125.466 91.856 122.522 94.032 119.066 98.384C117.466 100.304 116.186 102.096 115.226 103.76C114.266 105.424 113.53 106.992 113.018 108.464ZM138.246 122.288C133.702 122.288 131.43 120.048 131.43 115.568C131.43 112.048 132.742 107.6 135.366 102.224C135.494 101.968 136.102 100.848 137.19 98.864C138.342 96.816 139.974 93.904 142.086 90.128H137.094L136.902 89.936L136.998 89.36L137.094 89.264H142.566L149.478 77.168C150.054 77.424 150.726 77.552 151.494 77.552C152.39 77.552 153.35 77.232 154.374 76.592C155.462 76.016 156.198 75.376 156.582 74.672L156.87 74.768L148.23 89.264H154.854L154.95 89.36V89.936L154.758 90.128H147.75L141.222 101.648C137.318 108.496 135.366 113.776 135.366 117.488C135.366 120.112 136.39 121.424 138.438 121.424C141.638 121.424 144.87 119.632 148.134 116.048C149.03 115.088 150.086 113.648 151.302 111.728C152.518 109.808 153.542 107.984 154.374 106.256C154.502 105.936 154.662 105.84 154.854 105.968C155.11 106.032 155.174 106.224 155.046 106.544C154.086 108.464 153.062 110.288 151.974 112.016C150.95 113.744 149.766 115.344 148.422 116.816C145.094 120.464 141.702 122.288 138.246 122.288ZM159.359 89.936C158.528 89.936 158.112 89.744 158.112 89.36C158.112 89.232 158.4 89.136 158.976 89.072C161.664 88.56 163.904 87.216 165.696 85.04C167.488 82.8 168.384 80.304 168.384 77.552C167.552 78.704 166.432 79.28 165.024 79.28C164.128 79.28 163.424 78.928 162.912 78.224C162.336 77.52 162.048 76.752 162.048 75.92C162.048 74.896 162.464 74 163.296 73.232C164.064 72.464 164.96 72.08 165.984 72.08C167.136 72.08 168.064 72.624 168.768 73.712C169.344 74.672 169.632 75.792 169.632 77.072C169.632 79.568 168.896 81.936 167.424 84.176C165.888 86.544 164.032 88.208 161.856 89.168C160.64 89.68 159.808 89.936 159.359 89.936ZM172.695 123.152C166.231 123.152 162.999 120.08 162.999 113.936C162.999 112.208 163.287 110.352 163.863 108.368V108.464C164.183 107.312 164.791 106.192 165.687 105.104C166.775 103.76 167.767 103.088 168.663 103.088C168.663 103.088 168.759 103.088 168.951 103.088C169.143 103.088 169.463 103.152 169.911 103.28L170.967 101.648C171.863 100.304 172.663 98.96 173.367 97.616C174.135 96.208 174.935 94.832 175.767 93.488C178.135 89.392 179.927 87.184 181.143 86.864C181.527 86.736 181.815 86.672 182.007 86.672C182.967 86.672 183.447 87.024 183.447 87.728C183.447 88.56 182.743 89.072 181.335 89.264C180.055 89.456 179.255 89.616 178.935 89.744C178.423 90.128 178.167 90.96 178.167 92.24C178.167 93.584 179.031 95.856 180.759 99.056C182.487 102.192 183.351 104.976 183.351 107.408C183.351 108.048 183.287 108.656 183.159 109.232C183.095 109.808 182.999 110.416 182.871 111.056C181.143 118.288 176.567 121.904 169.143 121.904C170.615 122.224 171.959 122.384 173.174 122.384C175.415 122.384 177.591 122 179.703 121.232C181.815 120.4 183.767 119.28 185.559 117.872C187.415 116.4 189.111 114.64 190.647 112.592C192.247 110.48 193.623 108.24 194.775 105.872C194.967 105.488 195.159 105.296 195.351 105.296C195.735 105.296 195.767 105.616 195.447 106.256C194.423 108.176 193.335 110 192.183 111.728C191.095 113.392 189.911 114.896 188.631 116.24C187.095 117.776 185.015 119.312 182.391 120.848C179.767 122.384 176.535 123.152 172.695 123.152ZM168.471 121.136C171.735 121.136 174.423 118.672 176.535 113.744C178.263 109.904 179.127 106.032 179.127 102.128C179.127 101.616 179.031 100.944 178.839 100.112C178.711 99.216 178.487 98.16 178.167 96.944C177.911 95.792 177.719 94.8 177.591 93.968C177.463 93.072 177.431 92.304 177.495 91.664C176.279 94.096 175.063 96.304 173.847 98.288C172.631 100.272 171.479 102.064 170.391 103.664C170.711 104.176 170.871 104.688 170.871 105.2C170.871 106.096 170.519 107.088 169.815 108.176C169.367 108.816 168.599 109.424 167.511 110C166.423 110.576 165.655 111.12 165.207 111.632C164.503 112.656 164.151 114 164.151 115.664C164.151 119.312 165.591 121.136 168.471 121.136ZM213.286 122.672C208.614 122.672 206.278 119.472 206.278 113.072C206.278 112.112 206.342 111.152 206.47 110.192C206.598 109.232 206.79 108.272 207.046 107.312C208.646 101.232 210.758 95.536 213.382 90.224C214.406 88.112 215.494 86.064 216.646 84.08C217.862 82.096 219.11 80.208 220.39 78.416C221.734 76.56 223.142 74.768 224.614 73.04C226.086 71.312 227.622 69.712 229.222 68.24C233.766 64.016 237.542 61.904 240.55 61.904C243.238 61.904 244.582 63.184 244.582 65.744C244.582 67.792 243.654 70.416 241.798 73.616C240.262 76.304 238.598 78.544 236.806 80.336C231.366 85.968 224.518 91.248 216.262 96.176C212.166 105.904 210.118 112.88 210.118 117.104C210.118 118.768 210.406 119.984 210.982 120.752C211.622 121.456 212.518 121.808 213.67 121.808C215.206 121.808 216.614 121.264 217.894 120.176C219.238 119.088 220.454 117.744 221.542 116.144C222.63 114.544 223.59 112.912 224.422 111.248C225.254 109.584 225.894 108.144 226.342 106.928C226.214 106.608 226.054 106 225.862 105.104C225.734 104.144 225.67 103.184 225.67 102.224C225.67 101.136 225.798 100.208 226.054 99.44C226.31 98.608 226.758 98.192 227.398 98.192C228.422 98.192 228.934 98.96 228.934 100.496C228.934 101.328 228.806 102.288 228.55 103.376C228.294 104.464 227.878 105.616 227.302 106.832C227.43 108.304 227.718 109.552 228.166 110.576C228.614 111.6 229.382 112.112 230.47 112.112C231.558 112.112 232.582 111.568 233.542 110.48C234.502 109.328 235.462 107.792 236.422 105.872C236.422 105.808 236.486 105.776 236.614 105.776C236.742 105.776 236.838 105.872 236.902 106.064C237.03 106.192 237.03 106.352 236.902 106.544C236.006 108.528 235.046 110.064 234.022 111.152C232.998 112.24 231.75 112.784 230.278 112.784C228.166 112.784 226.95 111.216 226.63 108.08C222.918 117.808 218.47 122.672 213.286 122.672ZM216.934 94.928C225.19 89.36 231.526 84.368 235.942 79.952C240.998 74.768 243.526 69.968 243.526 65.552C243.526 63.504 242.534 62.48 240.55 62.48C237.094 62.48 232.518 66.992 226.822 76.016C225.03 78.896 223.302 81.936 221.638 85.136C220.038 88.272 218.47 91.536 216.934 94.928ZM237.942 122.576C236.342 122.576 235.062 122.032 234.102 120.944C233.206 119.856 232.758 118.544 232.758 117.008C232.758 115.6 233.174 113.744 234.006 111.44C234.902 109.136 236.15 106.384 237.75 103.184C238.454 101.776 239.35 100.08 240.438 98.096C241.59 96.048 242.966 93.712 244.566 91.088H244.758C245.206 91.408 245.718 91.568 246.294 91.568C247.638 91.568 249.174 90.896 250.902 89.552L251.094 89.744C250.134 90.832 248.47 93.488 246.102 97.712C245.334 99.056 244.598 100.304 243.894 101.456C243.254 102.608 242.614 103.696 241.974 104.72C238.198 111.184 236.31 115.92 236.31 118.928C236.31 120.656 237.11 121.52 238.71 121.52C242.294 121.52 247.254 115.92 253.59 104.72C254.486 103.12 255.542 101.136 256.758 98.768C257.974 96.4 259.382 93.648 260.982 90.512H261.174C261.622 90.704 262.038 90.864 262.422 90.992C262.806 91.12 263.19 91.184 263.574 91.184C264.982 91.184 265.974 90.544 266.55 89.264L266.838 89.36L259.35 103.856C254.934 112.304 252.726 117.648 252.726 119.888C252.726 121.04 253.27 121.616 254.358 121.616C255.126 121.616 256.054 121.296 257.142 120.656C258.294 120.016 259.478 119.024 260.694 117.68C262.23 115.888 263.542 114.192 264.63 112.592C265.782 110.928 267.094 108.688 268.566 105.872C268.758 105.552 268.95 105.392 269.142 105.392C269.526 105.392 269.526 105.712 269.142 106.352C267.99 108.528 266.742 110.704 265.398 112.88C264.118 114.992 262.55 116.976 260.694 118.832C258.262 121.264 256.118 122.48 254.262 122.48C252.598 122.48 251.318 122.064 250.422 121.232C249.59 120.4 249.174 119.056 249.174 117.2C249.174 115.664 249.494 113.968 250.134 112.112C245.846 119.088 241.782 122.576 237.942 122.576ZM283.44 85.52C281.392 85.52 280.368 84.528 280.368 82.544C280.368 80.368 281.36 79.28 283.344 79.28C285.392 79.28 286.416 80.272 286.416 82.256C286.416 84.432 285.424 85.52 283.44 85.52ZM272.112 122.96C267.888 122.96 265.776 120.624 265.776 115.952C265.776 112.56 266.768 108.976 268.752 105.2L275.952 91.088H276.24C276.432 91.344 276.816 91.472 277.392 91.472C278.608 91.472 280.208 90.736 282.192 89.264L282.384 89.456L274.224 105.296C270.832 111.824 269.136 116.368 269.136 118.928C269.136 120.08 269.456 120.88 270.096 121.328C270.736 121.776 271.472 122 272.304 122C273.2 122 274.064 121.808 274.896 121.424C275.792 121.04 276.56 120.624 277.2 120.176C278.928 118.832 280.368 117.296 281.52 115.568C282.736 113.776 283.792 111.984 284.688 110.192C285.583 108.4 286.384 106.896 287.088 105.68C287.28 105.36 287.472 105.264 287.664 105.392C287.856 105.456 287.888 105.648 287.76 105.968C286.48 108.656 285.072 111.408 283.536 114.224C282 117.04 280.048 119.28 277.68 120.944C276.848 121.52 275.952 122 274.992 122.384C274.096 122.768 273.136 122.96 272.112 122.96ZM293.364 122.768C288.18 122.768 285.588 119.344 285.588 112.496C285.588 108.4 286.484 103.632 288.276 98.192C289.108 95.696 290.004 93.296 290.964 90.992C291.924 88.688 292.948 86.544 294.036 84.56C295.38 82.128 296.788 79.824 298.26 77.648C299.732 75.408 301.3 73.296 302.964 71.312C307.764 65.36 311.86 62.384 315.252 62.384C316.66 62.384 317.364 63.056 317.364 64.4C317.364 66.192 316.628 68.944 315.156 72.656C310.228 84.88 302.228 96.016 291.156 106.064C290.068 110.096 289.524 113.328 289.524 115.76C289.524 119.92 290.836 122 293.46 122C294.356 122 295.22 121.84 296.052 121.52C296.884 121.136 297.62 120.72 298.26 120.272C299.988 118.928 301.46 117.36 302.676 115.568C303.892 113.776 304.948 111.984 305.844 110.192C306.74 108.4 307.54 106.896 308.244 105.68C308.436 105.36 308.628 105.264 308.82 105.392C309.012 105.456 309.044 105.648 308.916 105.968C307.636 108.656 306.228 111.408 304.692 114.224C303.156 117.04 301.204 119.28 298.836 120.944C297.108 122.16 295.284 122.768 293.364 122.768ZM291.444 105.104C292.724 104.016 294.068 102.672 295.476 101.072C296.884 99.472 298.388 97.648 299.988 95.6C301.588 93.552 303.22 91.28 304.884 88.784C306.548 86.288 308.212 83.6 309.876 80.72C314.356 73.104 316.596 67.792 316.596 64.784C316.596 63.696 316.244 63.152 315.54 63.152C313.172 63.152 308.948 68.24 302.868 78.416C301.268 81.296 299.828 84.08 298.548 86.768C297.012 90.16 295.636 93.392 294.42 96.464C293.268 99.472 292.276 102.352 291.444 105.104ZM312.442 122.48C310.138 122.48 308.506 121.52 307.546 119.6C306.586 117.68 306.106 115.568 306.106 113.264C306.106 110.896 306.458 108.848 307.162 107.12C308.058 104.752 309.37 102.352 311.098 99.92C312.826 97.424 314.906 95.344 317.338 93.68C319.77 91.952 322.426 91.088 325.306 91.088C328.506 91.088 330.106 92.944 330.106 96.656C330.106 98.512 329.722 100.496 328.954 102.608L344.602 71.888H344.794C345.05 72.144 345.498 72.272 346.138 72.272C347.482 72.272 349.082 71.536 350.938 70.064L351.13 70.256L336.73 97.808C331.162 108.496 328.378 115.504 328.378 118.832C328.378 120.56 329.082 121.424 330.49 121.424C331.258 121.424 332.186 121.136 333.274 120.56C334.362 119.984 335.514 119.024 336.73 117.68C338.266 115.888 339.578 114.192 340.666 112.592C341.818 110.928 343.13 108.688 344.602 105.872C344.794 105.552 344.986 105.392 345.178 105.392C345.562 105.392 345.562 105.712 345.178 106.352C344.026 108.528 342.778 110.704 341.434 112.88C340.154 114.992 338.586 116.976 336.73 118.832C334.426 121.136 332.282 122.288 330.298 122.288C328.698 122.288 327.354 121.84 326.266 120.944C325.242 120.048 324.73 118.512 324.73 116.336C324.73 114.288 325.082 112.016 325.786 109.52C321.306 118.16 316.858 122.48 312.442 122.48ZM313.114 121.616C314.842 121.616 316.89 120.336 319.258 117.776C321.626 115.216 324.09 111.504 326.65 106.64C326.906 106.128 327.226 105.328 327.61 104.24C328.058 103.088 328.442 101.84 328.762 100.496C329.146 99.088 329.338 97.776 329.338 96.56C329.338 95.28 329.082 94.224 328.57 93.392C328.058 92.56 327.162 92.144 325.882 92.144C324.666 92.144 323.354 92.592 321.946 93.488C320.602 94.32 319.194 95.76 317.722 97.808C315.29 101.072 313.53 104.24 312.442 107.312C312.314 107.696 312.09 108.464 311.77 109.616C311.45 110.704 311.162 111.952 310.906 113.36C310.65 114.704 310.522 116.016 310.522 117.296C310.522 118.512 310.714 119.536 311.098 120.368C311.482 121.2 312.154 121.616 313.114 121.616ZM352.367 123.056C350.255 123.056 349.199 122.032 349.199 119.984C349.199 117.68 350.351 116.528 352.655 116.528C354.767 116.528 355.823 117.552 355.823 119.6C355.823 121.904 354.671 123.056 352.367 123.056Z" fill="white"/>
</svg>
