<svg width="65" height="74" viewBox="0 0 65 74" fill="none" xmlns="http://www.w3.org/2000/svg">
<path d="M24.1999 0.199951C10.9664 0.199951 0.199951 10.9664 0.199951 24.2C0.199951 34.0672 4.63655 38.8217 7.87495 42.2937C9.92135 44.4857 11.4 46.0688 11.4 48.2V56.2V57.8V64.2C11.4 66.8327 13.5672 69 16.2 69H18.0312C18.7511 71.7451 21.2398 73.8 24.1999 73.8C27.1601 73.8 29.6488 71.7451 30.3687 69H32.1999C34.8327 69 36.9999 66.8327 36.9999 64.2V56.2V48.2C36.9999 46.1808 37.7712 44.6932 38.9312 43.2468L35.9093 41.95C34.6901 43.6476 33.7999 45.6096 33.7999 48.2V56.2H14.6V48.2C14.6 44.808 12.47 42.5253 10.2156 40.1093C7.02038 36.6869 3.39995 32.8064 3.39995 24.2C3.39995 12.7312 12.7312 3.39995 24.1999 3.39995C26.4383 3.39995 28.5791 3.7845 30.5999 4.4437V1.10308C28.5599 0.530276 26.4207 0.199951 24.1999 0.199951ZM40.8781 1.42495L34.2218 4.03745L35.4656 10.3406C35.1421 10.6285 34.8317 10.9295 34.5343 11.2468L28.3906 9.9062L25.5468 16.5406L30.6937 19.8625C30.6592 20.2406 30.5999 20.5993 30.5999 21C30.5999 21.3062 30.6443 21.5793 30.6656 21.8718L25.4093 24.9312L28.0406 31.6343L34.2312 30.3843C34.5723 30.7767 34.933 31.1488 35.3156 31.5031L33.8874 37.6031L40.5093 40.4406L43.9937 35.3218C44.3291 35.3496 44.6446 35.4 44.9999 35.4C45.3074 35.4 45.5813 35.3556 45.8749 35.3343L48.9312 40.5906L55.6218 37.9625L54.4187 31.7062C54.9415 31.2465 55.4234 30.747 55.8749 30.2156L61.5718 31.8843L64.4687 25.1281L59.3218 21.9968C59.349 21.6638 59.3999 21.3513 59.3999 21C59.3999 20.6349 59.3447 20.3108 59.3156 19.9656L64.4374 16.9031L61.8031 10.2031L55.6718 11.5125C55.2886 11.0823 54.8812 10.6778 54.4499 10.2968L55.8093 4.39683L49.1562 1.5437L45.8843 6.66558C45.5879 6.64391 45.3122 6.59995 44.9999 6.59995C44.7026 6.59995 44.4393 6.64249 44.1562 6.66245L40.8781 1.42495ZM39.5749 5.37495L42.4999 10.0468L43.5218 9.90933C44.0314 9.84158 44.5206 9.79995 44.9999 9.79995C45.4894 9.79995 45.9873 9.84295 46.5093 9.91245L47.5218 10.05L50.3906 5.55308L52.0906 6.2812L50.9031 11.4375L51.7312 12.0625C52.5527 12.6832 53.2821 13.4096 53.9031 14.225L54.5187 15.0343L59.8187 13.9L60.4656 15.55L55.9062 18.2781L56.0624 19.3343C56.1466 19.9075 56.1999 20.4592 56.1999 21C56.1999 21.5293 56.1496 22.0673 56.0687 22.625L55.9156 23.6718L60.4343 26.4187L59.7499 28.0156L54.7781 26.5593L54.1156 27.4875C53.452 28.4207 52.6492 29.2423 51.7312 29.9343L50.9343 30.5343L51.9781 35.9562L50.3156 36.6093L47.5999 31.9312L46.5343 32.0812C46.0085 32.1544 45.4995 32.2 44.9999 32.2C44.4865 32.2 43.9591 32.1489 43.4093 32.0718L42.4249 31.9343L39.3468 36.4625L37.6156 35.7187L38.8562 30.4093L38.0593 29.7781C37.2979 29.1756 36.6216 28.4733 36.0343 27.6875L35.4281 26.8781L30.0374 27.9656L29.3906 26.3156L34.0687 23.5937L33.9187 22.5312C33.8454 22.005 33.7999 21.4977 33.7999 21C33.7999 20.4383 33.857 19.8685 33.9468 19.2781L34.1031 18.2562L29.5531 15.3156L30.2906 13.5968L35.6531 14.7656L36.2718 13.9906C36.8247 13.3016 37.4638 12.6818 38.1749 12.1343L38.9624 11.5312L37.8781 6.04058L39.5749 5.37495ZM44.9999 14.6C41.4843 14.6 38.5999 17.4843 38.5999 21C38.5999 24.5156 41.4843 27.4 44.9999 27.4C48.5156 27.4 51.3999 24.5156 51.3999 21C51.3999 17.4843 48.5156 14.6 44.9999 14.6ZM44.9999 17.8C46.7862 17.8 48.1999 19.2137 48.1999 21C48.1999 22.7862 46.7862 24.2 44.9999 24.2C43.2137 24.2 41.7999 22.7862 41.7999 21C41.7999 19.2137 43.2137 17.8 44.9999 17.8ZM8.17495 22.5781C7.75115 22.5847 7.34729 22.7592 7.05201 23.0633C6.75673 23.3673 6.59415 23.7761 6.59995 24.2C6.59995 31.3203 9.59121 34.7488 12.5562 37.925C12.698 38.0847 12.8703 38.2144 13.063 38.3064C13.2557 38.3985 13.4649 38.451 13.6783 38.461C13.8916 38.4709 14.1048 38.4381 14.3052 38.3643C14.5056 38.2906 14.6893 38.1775 14.8453 38.0317C15.0014 37.8859 15.1266 37.7103 15.2138 37.5153C15.3009 37.3203 15.3481 37.1099 15.3526 36.8963C15.3571 36.6828 15.3188 36.4706 15.24 36.2721C15.1612 36.0736 15.0434 35.8929 14.8937 35.7406C11.9291 32.5648 9.79995 30.5068 9.79995 24.2C9.80288 23.9859 9.76283 23.7734 9.68216 23.5751C9.6015 23.3768 9.48186 23.1967 9.33034 23.0455C9.17881 22.8942 8.99848 22.7749 8.80002 22.6947C8.60156 22.6144 8.38901 22.5747 8.17495 22.5781ZM17.7656 40.4375C17.4885 40.442 17.2172 40.5184 16.9785 40.6592C16.7398 40.8 16.5418 41.0004 16.4038 41.2408C16.2658 41.4811 16.1926 41.7532 16.1914 42.0304C16.1902 42.3075 16.261 42.5803 16.3968 42.8218C16.6079 43.2081 16.7994 43.604 16.9687 44.0125C17.4825 45.2492 17.8 46.6109 17.8 48.2C17.797 48.412 17.8361 48.6225 17.9152 48.8192C17.9942 49.016 18.1116 49.195 18.2605 49.346C18.4094 49.497 18.5868 49.6169 18.7824 49.6988C18.978 49.7806 19.1879 49.8227 19.4 49.8227C19.612 49.8227 19.8219 49.7806 20.0175 49.6988C20.2131 49.6169 20.3905 49.497 20.5394 49.346C20.6883 49.195 20.8057 49.016 20.8847 48.8192C20.9638 48.6225 21.0029 48.412 20.9999 48.2C20.9999 46.1763 20.5824 44.3699 19.9249 42.7875C19.707 42.2615 19.4624 41.762 19.2031 41.2875C19.065 41.0272 18.8577 40.81 18.604 40.6601C18.3504 40.5101 18.0602 40.433 17.7656 40.4375ZM14.6 59.4H33.7999V64.2C33.7999 65.0872 33.0872 65.8 32.1999 65.8H29.2687C29.0959 65.7714 28.9196 65.7714 28.7468 65.8H19.6468C19.557 65.7849 19.466 65.7776 19.375 65.7781C19.2974 65.7798 19.2202 65.7871 19.1437 65.8H16.2C15.3127 65.8 14.6 65.0872 14.6 64.2V59.4ZM21.4343 69H26.9656C26.4161 69.9569 25.3958 70.6 24.1999 70.6C23.0041 70.6 21.9838 69.9569 21.4343 69Z" fill="#E1E0E2"/>
</svg>
