<?xml version="1.0" encoding="UTF-8"?>
<svg id="Layer_2" data-name="Layer 2" xmlns="http://www.w3.org/2000/svg" viewBox="0 0 50 49.1">
  <defs>
    <style>
      .cls-1 {
        fill: #99730a;
      }
    </style>
  </defs>
  <g id="Layer_1-2" data-name="Layer 1">
    <path class="cls-1" d="m25,0c-7.65,0-13.88,6.22-13.88,13.88,0,5.42,3.31,12.11,6.55,17.6,3.24,5.49,6.47,9.73,6.47,9.73l.85,1.1.85-1.1s3.24-4.24,6.47-9.73c3.24-5.49,6.55-12.18,6.55-17.6,0-7.65-6.22-13.88-13.88-13.88Zm0,2.13c6.5,0,11.74,5.25,11.74,11.74,0,4.5-3.09,11.15-6.25,16.52-2.74,4.65-4.8,7.33-5.49,8.24-.69-.92-2.74-3.59-5.49-8.24-3.16-5.37-6.25-12.02-6.25-16.52,0-6.5,5.25-11.74,11.74-11.74Zm0,6.4c-2.94,0-5.34,2.4-5.34,5.34s2.4,5.34,5.34,5.34,5.34-2.4,5.34-5.34-2.4-5.34-5.34-5.34Zm0,2.13c1.78,0,3.2,1.42,3.2,3.2s-1.42,3.2-3.2,3.2-3.2-1.42-3.2-3.2,1.42-3.2,3.2-3.2ZM6.1,32.02L0,49.1h50l-6.1-17.08h-8.17c-.42.73-.83,1.45-1.25,2.13h7.92l4.57,12.81H3.04l4.57-12.81h7.92c-.42-.69-.83-1.4-1.25-2.13H6.1Z"/>
  </g>
</svg>