<svg xmlns="http://www.w3.org/2000/svg" xmlns:xlink="http://www.w3.org/1999/xlink" viewBox="0,0,256,256" width="50px" height="50px" fill-rule="nonzero"><g fill="#e1e0e2" fill-rule="nonzero" stroke="none" stroke-width="1" stroke-linecap="butt" stroke-linejoin="miter" stroke-miterlimit="10" stroke-dasharray="" stroke-dashoffset="0" font-family="none" font-weight="none" font-size="none" text-anchor="none" style="mix-blend-mode: normal"><g transform="scale(5.12,5.12)"><path d="M14.89258,9.01172c-2.14461,0.05049 -3.93164,1.70993 -3.93164,3.79297c0,0.48161 0.19172,0.819 0.33594,1.19922h-5.29687c-0.55226,0.00006 -0.99994,0.44774 -1,1v6.47852l-0.59961,0.16211l-0.05664,0.02344c-0.76277,0.30693 -1.36913,0.855 -1.80859,1.51172l-2.3457,3.23437c-0.2094,0.28958 -0.24839,0.66888 -0.10227,0.995c0.14611,0.32612 0.45513,0.5495 0.81062,0.58599c0.35549,0.03649 0.70344,-0.11947 0.91275,-0.40911l2.37695,-3.2793l0.00977,-0.01562c0.24466,-0.36562 0.48806,-0.54173 0.80273,-0.68945v4.39844v1.28516l2.57227,1.71484l5.4668,-4.62891l0.00781,-0.00781c0.45828,-0.40784 1.09394,-0.37221 1.52539,0.08789l0.01367,0.01563l0.01562,0.01563c0.48496,0.47473 0.53979,1.28191 0.10156,1.89063l-0.00586,0.00781l-5.30664,7.67969c-0.85339,1.17213 -2.06703,1.949 -3.41211,2.27539l-0.01562,0.00391l-5.22852,1.44727c-0.36036,0.08032 -0.64716,0.35265 -0.74601,0.70837c-0.09885,0.35572 0.00632,0.73698 0.27357,0.99171c0.26725,0.25473 0.65311,0.3415 1.00369,0.2257l5.18359,-1.43359c1.47491,-0.3579 2.84032,-1.13683 3.91406,-2.27539h0.93359c-0.14422,0.38022 -0.33594,0.71761 -0.33594,1.19922c0,2.38125 2.33617,4.20969 4.87109,3.71289c1.52924,-0.29585 2.73762,-1.4763 3.06836,-2.98828c0.16775,-0.68954 0.0479,-1.33205 -0.16602,-1.92383h5.26563h6.29688c-0.14422,0.38022 -0.33594,0.71761 -0.33594,1.19922c0,2.38125 2.33617,4.20969 4.87109,3.71289c1.52924,-0.29585 2.73763,-1.4763 3.06836,-2.98828c0.16775,-0.68954 0.0479,-1.33205 -0.16602,-1.92383h1.9043c1.07346,1.13793 2.43807,1.91771 3.91211,2.27539l5.18164,1.43359c0.34901,0.11143 0.73101,0.02311 0.99569,-0.23022c0.26467,-0.25332 0.36965,-0.63109 0.27362,-0.98464c-0.09603,-0.35356 -0.37769,-0.62631 -0.73415,-0.71092l-5.23047,-1.44727l-0.01562,-0.00391c-1.34501,-0.32648 -2.55872,-1.10522 -3.41211,-2.27734l-5.30664,-7.67773l-0.00586,-0.00781c-0.43751,-0.60711 -0.38115,-1.41812 0.10352,-1.89258l0.01367,-0.01562l0.01563,-0.01562c0.43141,-0.46061 1.06483,-0.49602 1.52344,-0.08789l0.00977,0.00977l5.46484,4.62891l2.57227,-1.71484v-1.28516v-4.39844c0.31396,0.14678 0.55744,0.32484 0.80273,0.69141l0.00977,0.01563l2.37695,3.27734c0.2093,0.28967 0.55726,0.44564 0.91276,0.40916c0.3555,-0.03648 0.66453,-0.25987 0.81065,-0.58601c0.14611,-0.32614 0.10711,-0.70545 -0.10232,-0.99503l-2.3457,-3.23437c-0.43914,-0.65624 -1.04578,-1.20528 -1.81055,-1.51172l-0.05469,-0.02148l-0.59961,-0.16211v-6.48047c-0.00006,-0.55226 -0.44774,-0.99994 -1,-1h-6.26562c0.21392,-0.59178 0.33377,-1.23429 0.16602,-1.92383c-0.33073,-1.51199 -1.53912,-2.69244 -3.06836,-2.98828h-0.00195c-2.53414,-0.49542 -4.86914,1.33227 -4.86914,3.71289c0,0.48161 0.19172,0.819 0.33594,1.19922h-6.29687h-5.26562c0.21392,-0.59178 0.33377,-1.23429 0.16602,-1.92383c-0.33074,-1.51199 -1.53912,-2.69244 -3.06836,-2.98828h-0.00195c-0.31677,-0.06193 -0.63113,-0.08729 -0.9375,-0.08008zM14.92578,11.00391c0.16677,-0.0011 0.34085,0.01538 0.52149,0.05078c0.0013,0.00065 0.0026,0.0013 0.00391,0.00195c0.74453,0.14368 1.34772,0.73729 1.50195,1.45703c0.00177,0.0111 0.00372,0.02217 0.00586,0.0332c0.10655,0.42621 0.01533,0.78366 -0.23047,1.16602l0.03516,-0.05078c-0.30285,0.41298 -0.36228,0.99579 -0.17773,1.43555c0.18454,0.43976 0.57146,0.76555 1.03906,0.87891c0.07677,0.01833 0.15544,0.02751 0.23438,0.02734h5.14063v8.07031c-0.00559,0.43436 0.26985,0.82265 0.68164,0.96094c0.47625,0.33432 1.05677,0.49094 1.58203,0.17578l-0.09961,0.05273c0.37765,-0.17166 0.65373,-0.25977 1.03516,-0.25977c0.59332,0 1.10784,0.24625 1.42383,0.58984c0.31599,0.3436 0.45407,0.74083 0.33398,1.25195c-0.00066,0.00195 -0.00131,0.0039 -0.00195,0.00586c-0.11411,0.49808 -0.64729,1.00837 -1.43164,1.14844c-0.00914,0.00183 -0.01826,0.00378 -0.02734,0.00586c-0.46842,0.09759 -0.88379,0.0056 -1.27344,-0.20312l0.04102,0.02344c-0.52738,-0.31643 -1.10052,-0.17866 -1.57422,0.14258h-0.00195c-0.4155,0.13667 -0.69398,0.52749 -0.6875,0.96484v7.07031h-5.14062c-0.07893,-0.00017 -0.1576,0.00901 -0.23437,0.02734c-0.4676,0.11336 -0.85452,0.43914 -1.03906,0.87891c-0.18454,0.43976 -0.12511,1.02257 0.17773,1.43555l-0.03516,-0.05078c0.2458,0.38235 0.33702,0.73981 0.23047,1.16602c-0.00214,0.01103 -0.00409,0.0221 -0.00586,0.0332c-0.15423,0.71974 -0.75743,1.31335 -1.50195,1.45703c-0.0013,0.00065 -0.00261,0.0013 -0.00391,0.00195c-1.44508,0.28321 -2.48633,-0.67125 -2.48633,-1.75c0,-0.34571 0.09347,-0.5978 0.29687,-0.9707l-0.05859,0.0957c0.28846,-0.41208 0.34734,-0.99564 0.14258,-1.44531c-0.20476,-0.44967 -0.631,-0.75959 -1.0957,-0.85742c-0.06808,-0.01434 -0.13746,-0.02154 -0.20703,-0.02148h-0.17773l4.46484,-6.46094c0.98145,-1.36327 0.88941,-3.27237 -0.31836,-4.4707c-1.13692,-1.19144 -3.04615,-1.30923 -4.28906,-0.20312l-4.29102,3.63086l-0.42773,-0.28516v-0.21484v-5.49609v-1.55859v-4.94141h5.03906c0.06957,0.00006 0.13896,-0.00714 0.20703,-0.02148c0.4647,-0.09783 0.89094,-0.40775 1.0957,-0.85742c0.20476,-0.44967 0.14588,-1.03323 -0.14258,-1.44531l0.05859,0.0957c-0.2034,-0.3729 -0.29687,-0.62499 -0.29687,-0.9707c0,-0.94391 0.79745,-1.79307 1.96484,-1.80078zM33.92578,11.00391c0.16677,-0.0011 0.34085,0.01538 0.52148,0.05078c0.0013,0.00065 0.0026,0.0013 0.00391,0.00195c0.74453,0.14368 1.34772,0.73729 1.50195,1.45703c0.00177,0.0111 0.00372,0.02217 0.00586,0.0332c0.10655,0.42621 0.01533,0.78366 -0.23047,1.16602l0.03516,-0.05078c-0.30285,0.41298 -0.36228,0.99579 -0.17773,1.43555c0.18454,0.43976 0.57147,0.76555 1.03906,0.87891c0.07677,0.01833 0.15544,0.02751 0.23438,0.02734h6.14063v4.93945v1.56055v5.49609v0.21484l-0.42773,0.28516l-4.28906,-3.63281h-0.00195c-1.24358,-1.10525 -3.15482,-0.98993 -4.29102,0.20508c-1.20571,1.19826 -1.29681,3.10475 -0.31641,4.4668v0.00195l4.46484,6.46289h-1.2793c-0.07893,-0.00017 -0.1576,0.00901 -0.23437,0.02734c-0.4676,0.11336 -0.85452,0.43914 -1.03906,0.87891c-0.18454,0.43976 -0.12511,1.02257 0.17773,1.43555l-0.03516,-0.05078c0.2458,0.38235 0.33702,0.73981 0.23047,1.16602c-0.00214,0.01103 -0.00409,0.0221 -0.00586,0.0332c-0.15423,0.71974 -0.75743,1.31335 -1.50195,1.45703c-0.0013,0.00065 -0.00261,0.0013 -0.00391,0.00195c-1.44508,0.28321 -2.48633,-0.67125 -2.48633,-1.75c0,-0.34571 0.09347,-0.5978 0.29687,-0.9707l-0.05859,0.0957c0.28846,-0.41208 0.34734,-0.99564 0.14258,-1.44531c-0.20476,-0.44967 -0.631,-0.75959 -1.0957,-0.85742c-0.06808,-0.01434 -0.13746,-0.02154 -0.20703,-0.02148h-6.03906v-6.18945c0.58104,0.1839 1.20875,0.28618 1.88672,0.14844c1.44991,-0.26359 2.69274,-1.24853 3.01758,-2.66602c0.26723,-1.14682 -0.09583,-2.2816 -0.80859,-3.05664c-0.71401,-0.7764 -1.75981,-1.23633 -2.89648,-1.23633c-0.47538,0 -0.82099,0.15993 -1.19922,0.2832v-7.2832h6.03906c0.06957,0.00006 0.13896,-0.00714 0.20703,-0.02148c0.4647,-0.09783 0.89094,-0.40775 1.0957,-0.85742c0.20476,-0.44967 0.14588,-1.03323 -0.14258,-1.44531l0.05859,0.0957c-0.2034,-0.3729 -0.29687,-0.62499 -0.29687,-0.9707c0,-0.94391 0.79745,-1.79307 1.96484,-1.80078z"></path></g></g></svg>