<svg width="82" height="57" viewBox="0 0 82 57" fill="none" xmlns="http://www.w3.org/2000/svg">
<path d="M24.4238 0.779233C20.9066 0.862029 17.9759 3.58352 17.9759 6.9997C17.9759 7.78954 18.2903 8.34286 18.5269 8.96642H9.83998C9.40504 8.96646 8.98793 9.13926 8.68038 9.44681C8.37283 9.75436 8.20003 10.1715 8.19998 10.6064V21.2312L7.21662 21.497L7.12373 21.5355C5.87279 22.0389 4.87836 22.9377 4.15764 24.0147L0.310686 29.3191C0.184455 29.4936 0.0938466 29.6914 0.0440348 29.9009C-0.00577703 30.1105 -0.0138163 30.3279 0.0203761 30.5406C0.0545685 30.7533 0.130323 30.9571 0.243313 31.1405C0.356303 31.3239 0.504316 31.4833 0.678898 31.6095C0.853481 31.7357 1.05121 31.8263 1.26081 31.8761C1.4704 31.9259 1.68774 31.9339 1.90043 31.8996C2.11312 31.8654 2.31698 31.7896 2.50037 31.6766C2.68377 31.5636 2.8431 31.4156 2.96928 31.241L6.86748 25.8629L6.8835 25.8373C7.28475 25.2377 7.68392 24.9489 8.19998 24.7066V31.92V34.0277L12.4185 36.84L21.384 29.2486L21.3969 29.2358C22.1484 28.5669 23.1909 28.6254 23.8985 29.3799L23.9209 29.4056L23.9465 29.4312C24.7419 30.2097 24.8318 31.5335 24.1131 32.5318L24.1035 32.5446L15.4006 45.1393C14.001 47.0616 12.0107 48.3357 9.80475 48.871L9.77912 48.8774L1.20436 51.2509C0.98741 51.2992 0.782554 51.3912 0.602231 51.5211C0.421907 51.6511 0.26988 51.8163 0.155381 52.0069C0.0408815 52.1974 -0.0337003 52.4092 -0.0638354 52.6294C-0.0939705 52.8496 -0.0790301 53.0736 -0.0199214 53.2879C0.0391872 53.5022 0.141231 53.7022 0.280012 53.8758C0.418793 54.0495 0.591416 54.1931 0.787398 54.2979C0.98338 54.4028 1.19863 54.4667 1.42008 54.4858C1.64153 54.505 1.86455 54.4789 2.07561 54.4092L10.5767 52.0581C12.9956 51.4711 15.2348 50.1937 16.9958 48.3264H18.5269C18.2903 48.95 17.9759 49.5033 17.9759 50.2931C17.9759 54.1984 21.8072 57.197 25.9645 56.3823C28.4725 55.8971 30.4542 53.9612 30.9966 51.4815C31.2717 50.3507 31.0752 49.2969 30.7244 48.3264H39.36H49.6869C49.4503 48.95 49.1359 49.5033 49.1359 50.2931C49.1359 54.1984 52.9672 57.197 57.1245 56.3823C59.6325 55.8971 61.6142 53.9612 62.1566 51.4815C62.4317 50.3507 62.2352 49.2969 61.8844 48.3264H65.0074C66.7679 50.1926 69.0058 51.4715 71.4233 52.0581L79.9212 54.4092C80.1313 54.4763 80.3529 54.5003 80.5726 54.4797C80.7923 54.4592 81.0055 54.3946 81.1996 54.2897C81.3938 54.1848 81.5647 54.0419 81.7023 53.8694C81.8399 53.6969 81.9412 53.4984 82.0003 53.2858C82.0594 53.0733 82.0749 52.8509 82.0461 52.6322C82.0172 52.4135 81.9445 52.2028 81.8324 52.0128C81.7202 51.8228 81.5708 51.6574 81.3933 51.5265C81.2157 51.3956 81.0135 51.3018 80.7988 51.2509L72.2208 48.8774L72.1952 48.871C69.9894 48.3355 67.9989 47.0584 66.5994 45.1361L57.8965 32.5446L57.8869 32.5318C57.1693 31.5361 57.2618 30.2061 58.0566 29.428L58.079 29.4024L58.1047 29.3767C58.8122 28.6213 59.851 28.5633 60.6031 29.2326L60.6191 29.2486L69.5815 36.84L73.8 34.0277V31.92V24.7066C74.3149 24.9473 74.7142 25.2393 75.1165 25.8405L75.1325 25.8661L79.0307 31.241C79.1569 31.4156 79.3162 31.5636 79.4996 31.6767C79.683 31.7897 79.8869 31.8655 80.0995 31.8997C80.3122 31.9339 80.5296 31.9259 80.7392 31.8762C80.9488 31.8264 81.1465 31.7358 81.3211 31.6096C81.4957 31.4834 81.6437 31.324 81.7567 31.1406C81.8697 30.9572 81.9455 30.7533 81.9797 30.5406C82.0138 30.3279 82.0058 30.1105 81.956 29.901C81.9061 29.6914 81.8155 29.4936 81.6893 29.3191L77.8423 24.0147C77.1221 22.9385 76.1272 22.038 74.873 21.5355L74.7833 21.5002L73.8 21.2344V10.6064C73.7999 10.1715 73.6271 9.75436 73.3196 9.44681C73.012 9.13926 72.5949 8.96646 72.16 8.96642H61.8844C62.2352 7.9959 62.4317 6.94218 62.1566 5.81134C61.6142 3.33169 59.6325 1.39575 57.1245 0.910562H57.1213C52.9653 0.0980682 49.1359 3.09549 49.1359 6.9997C49.1359 7.78954 49.4503 8.34286 49.6869 8.96642H39.36H30.7244C31.0752 7.9959 31.2717 6.94218 30.9966 5.81134C30.4542 3.33169 28.4725 1.39575 25.9645 0.910562H25.9613C25.4418 0.809 24.9263 0.767405 24.4238 0.779233ZM24.4783 4.04642C24.7518 4.04462 25.0373 4.07165 25.3335 4.1297L25.3399 4.13291C26.5609 4.36854 27.5502 5.34207 27.8031 6.52244C27.806 6.54064 27.8092 6.55879 27.8127 6.57689C27.9875 7.27587 27.8379 7.8621 27.4347 8.48916L27.4924 8.40587C26.9957 9.08315 26.8983 10.039 27.2009 10.7602C27.5036 11.4814 28.1381 12.0157 28.905 12.2016C29.0309 12.2316 29.1599 12.2467 29.2894 12.2464H37.72V25.4817C37.7155 25.8289 37.8213 26.1686 38.0222 26.4518C38.2231 26.735 38.5087 26.9471 38.8379 27.0577C39.6189 27.6059 40.571 27.8628 41.4324 27.346L41.269 27.4324C41.8884 27.1509 42.3412 27.0064 42.9667 27.0064C43.9397 27.0064 44.7836 27.4103 45.3018 27.9738C45.82 28.5373 46.0465 29.1887 45.8495 30.027C45.8484 30.0302 45.8474 30.0334 45.8463 30.0366C45.6592 30.8534 44.7848 31.6903 43.4984 31.92C43.4834 31.923 43.4685 31.9262 43.4536 31.9296C42.6854 32.0897 42.0042 31.9388 41.3651 31.5965L41.4324 31.6349C40.5675 31.116 39.6276 31.3419 38.8507 31.8688H38.8475C38.5155 31.978 38.227 32.1904 38.0242 32.475C37.8214 32.7597 37.7148 33.1016 37.72 33.4511V45.0464H29.2894C29.1599 45.0461 29.0309 45.0612 28.905 45.0913C28.1381 45.2772 27.5036 45.8115 27.2009 46.5327C26.8983 47.2539 26.9957 48.2097 27.4924 48.887L27.4347 48.8037C27.8379 49.4307 27.9875 50.017 27.8127 50.716C27.8092 50.734 27.806 50.7522 27.8031 50.7704C27.5502 51.9508 26.5609 52.9243 25.3399 53.1599L25.3335 53.1631C22.9636 53.6276 21.2559 52.0623 21.2559 50.2931C21.2559 49.7262 21.4092 49.3127 21.7428 48.7012L21.6467 48.8581C22.1198 48.1823 22.2163 47.2253 21.8805 46.4878C21.5447 45.7504 20.8457 45.2421 20.0836 45.0817C19.9719 45.0581 19.8581 45.0463 19.744 45.0464H19.4526L26.7749 34.4505C28.3845 32.2147 28.2335 29.0838 26.2528 27.1185C24.3882 25.1646 21.2571 24.9714 19.2187 26.7854L12.1815 32.74L11.48 32.2724V31.92V22.9064V20.3503V12.2464H19.744C19.8581 12.2465 19.9719 12.2347 20.0836 12.2112C20.8457 12.0507 21.5447 11.5425 21.8805 10.805C22.2163 10.0676 22.1198 9.11051 21.6467 8.4347L21.7428 8.59166C21.4092 7.9801 21.2559 7.56667 21.2559 6.9997C21.2559 5.4517 22.5637 4.05907 24.4783 4.04642ZM55.6383 4.04642C55.9118 4.04462 56.1973 4.07165 56.4935 4.1297L56.4999 4.13291C57.7209 4.36854 58.7102 5.34207 58.9631 6.52244C58.966 6.54064 58.9692 6.55879 58.9727 6.57689C59.1475 7.27587 58.9979 7.8621 58.5948 8.48916L58.6524 8.40587C58.1557 9.08315 58.0583 10.039 58.3609 10.7602C58.6636 11.4814 59.2981 12.0157 60.065 12.2016C60.1909 12.2316 60.3199 12.2467 60.4494 12.2464H70.52V20.3471V22.9064V31.92V32.2724L69.8185 32.74L62.7844 26.7822H62.7812C60.7418 24.9696 57.6073 25.1587 55.744 27.1185C53.7666 29.0837 53.6172 32.2103 55.2251 34.4441V34.4473L62.5474 45.0464H60.4494C60.3199 45.0461 60.1909 45.0612 60.065 45.0913C59.2981 45.2772 58.6636 45.8115 58.3609 46.5327C58.0583 47.2539 58.1557 48.2097 58.6524 48.887L58.5948 48.8037C58.9979 49.4307 59.1475 50.017 58.9727 50.716C58.9692 50.734 58.966 50.7522 58.9631 50.7704C58.7102 51.9508 57.7209 52.9243 56.4999 53.1599L56.4935 53.1631C54.1236 53.6276 52.4159 52.0623 52.4159 50.2931C52.4159 49.7262 52.5692 49.3127 52.9028 48.7012L52.8067 48.8581C53.2798 48.1823 53.3763 47.2253 53.0405 46.4878C52.7047 45.7504 52.0057 45.2421 51.2436 45.0817C51.1319 45.0581 51.0181 45.0463 50.904 45.0464H41V34.8957C41.9529 35.1973 42.9823 35.3651 44.0942 35.1392C46.4721 34.7069 48.5103 33.0916 49.043 30.7669C49.4813 28.8861 48.8859 27.0251 47.7169 25.754C46.546 24.4807 44.8308 23.7264 42.9667 23.7264C42.1871 23.7264 41.6203 23.9887 41 24.1909V12.2464H50.904C51.0181 12.2465 51.1319 12.2347 51.2436 12.2112C52.0057 12.0507 52.7047 11.5425 53.0405 10.805C53.3763 10.0676 53.2798 9.11051 52.8067 8.4347L52.9028 8.59166C52.5692 7.9801 52.4159 7.56667 52.4159 6.9997C52.4159 5.4517 53.7237 4.05907 55.6383 4.04642Z" fill="#E1E0E2"/>
</svg>
