<svg width="721" height="610" viewBox="0 0 721 610" fill="none" xmlns="http://www.w3.org/2000/svg">
<path d="M26.0039 10L26.0039 600" stroke="#E1E0E2"/>
<path d="M16.0039 0L16.0039 610" stroke="#E1E0E2"/>
<path d="M714 350L16 350" stroke="#E1E0E2"/>
<path fill-rule="evenodd" clip-rule="evenodd" d="M8 350C12.4183 350 16 346.418 16 342C16 346.418 19.5817 350 24 350C19.5817 350 16 353.582 16 358C16 353.582 12.4183 350 8 350ZM8 350C3.58172 350 0 353.582 0 358C0 362.418 3.58172 366 8 366C12.4183 366 16 362.418 16 358C16 362.418 19.5817 366 24 366C28.4183 366 32 362.418 32 358C32 353.582 28.4183 350 24 350C28.4183 350 32 346.418 32 342C32 337.582 28.4183 334 24 334C19.5817 334 16 337.582 16 342C16 337.582 12.4183 334 8 334C3.58172 334 0 337.582 0 342C0 346.418 3.58172 350 8 350ZM16 342C16 337.582 12.4183 334 8 334C3.58172 334 0 337.582 0 342C0 346.418 3.58172 350 8 350C3.58172 350 0 353.582 0 358C0 362.418 3.58172 366 8 366C12.4183 366 16 362.418 16 358C16 362.418 19.5817 366 24 366C28.4183 366 32 362.418 32 358C32 353.582 28.4183 350 24 350C28.4183 350 32 346.418 32 342C32 337.582 28.4183 334 24 334C19.5817 334 16 337.582 16 342Z" fill="#E1E0E2"/>
<path fill-rule="evenodd" clip-rule="evenodd" d="M8 440C12.4183 440 16 436.418 16 432C16 436.418 19.5817 440 24 440C19.5817 440 16 443.582 16 448C16 443.582 12.4183 440 8 440ZM8 440C3.58172 440 0 443.582 0 448C0 452.418 3.58172 456 8 456C12.4183 456 16 452.418 16 448C16 452.418 19.5817 456 24 456C28.4183 456 32 452.418 32 448C32 443.582 28.4183 440 24 440C28.4183 440 32 436.418 32 432C32 427.582 28.4183 424 24 424C19.5817 424 16 427.582 16 432C16 427.582 12.4183 424 8 424C3.58172 424 0 427.582 0 432C0 436.418 3.58172 440 8 440ZM16 432C16 427.582 12.4183 424 8 424C3.58172 424 0 427.582 0 432C0 436.418 3.58172 440 8 440C3.58172 440 0 443.582 0 448C0 452.418 3.58172 456 8 456C12.4183 456 16 452.418 16 448C16 452.418 19.5817 456 24 456C28.4183 456 32 452.418 32 448C32 443.582 28.4183 440 24 440C28.4183 440 32 436.418 32 432C32 427.582 28.4183 424 24 424C19.5817 424 16 427.582 16 432Z" fill="#E1E0E2"/>
<path d="M704 341L26 341" stroke="#E1E0E2"/>
<path fill-rule="evenodd" clip-rule="evenodd" d="M18 341C22.4183 341 26 337.418 26 333C26 337.418 29.5817 341 34 341C29.5817 341 26 344.582 26 349C26 344.582 22.4183 341 18 341ZM18 341C13.5817 341 10 344.582 10 349C10 353.418 13.5817 357 18 357C22.4183 357 26 353.418 26 349C26 353.418 29.5817 357 34 357C38.4183 357 42 353.418 42 349C42 344.582 38.4183 341 34 341C38.4183 341 42 337.418 42 333C42 328.582 38.4183 325 34 325C29.5817 325 26 328.582 26 333C26 328.582 22.4183 325 18 325C13.5817 325 10 328.582 10 333C10 337.418 13.5817 341 18 341ZM26 333C26 328.582 22.4183 325 18 325C13.5817 325 10 328.582 10 333C10 337.418 13.5817 341 18 341C13.5817 341 10 344.582 10 349C10 353.418 13.5817 357 18 357C22.4183 357 26 353.418 26 349C26 353.418 29.5817 357 34 357C38.4183 357 42 353.418 42 349C42 344.582 38.4183 341 34 341C38.4183 341 42 337.418 42 333C42 328.582 38.4183 325 34 325C29.5817 325 26 328.582 26 333Z" fill="#E1E0E2"/>
<path fill-rule="evenodd" clip-rule="evenodd" d="M697 364C701.418 364 705 360.418 705 356C705 360.418 708.582 364 713 364C708.582 364 705 367.582 705 372C705 367.582 701.418 364 697 364ZM697 364C692.582 364 689 367.582 689 372C689 376.418 692.582 380 697 380C701.418 380 705 376.418 705 372C705 376.418 708.582 380 713 380C717.418 380 721 376.418 721 372C721 367.582 717.418 364 713 364C717.418 364 721 360.418 721 356C721 351.582 717.418 348 713 348C708.582 348 705 351.582 705 356C705 351.582 701.418 348 697 348C692.582 348 689 351.582 689 356C689 360.418 692.582 364 697 364ZM705 356C705 351.582 701.418 348 697 348C692.582 348 689 351.582 689 356C689 360.418 692.582 364 697 364C692.582 364 689 367.582 689 372C689 376.418 692.582 380 697 380C701.418 380 705 376.418 705 372C705 376.418 708.582 380 713 380C717.418 380 721 376.418 721 372C721 367.582 717.418 364 713 364C717.418 364 721 360.418 721 356C721 351.582 717.418 348 713 348C708.582 348 705 351.582 705 356Z" fill="#E1E0E2"/>
<path fill-rule="evenodd" clip-rule="evenodd" d="M679 364C683.418 364 687 360.418 687 356C687 360.418 690.582 364 695 364C690.582 364 687 367.582 687 372C687 367.582 683.418 364 679 364ZM679 364C674.582 364 671 367.582 671 372C671 376.418 674.582 380 679 380C683.418 380 687 376.418 687 372C687 376.418 690.582 380 695 380C699.418 380 703 376.418 703 372C703 367.582 699.418 364 695 364C699.418 364 703 360.418 703 356C703 351.582 699.418 348 695 348C690.582 348 687 351.582 687 356C687 351.582 683.418 348 679 348C674.582 348 671 351.582 671 356C671 360.418 674.582 364 679 364ZM687 356C687 351.582 683.418 348 679 348C674.582 348 671 351.582 671 356C671 360.418 674.582 364 679 364C674.582 364 671 367.582 671 372C671 376.418 674.582 380 679 380C683.418 380 687 376.418 687 372C687 376.418 690.582 380 695 380C699.418 380 703 376.418 703 372C703 367.582 699.418 364 695 364C699.418 364 703 360.418 703 356C703 351.582 699.418 348 695 348C690.582 348 687 351.582 687 356Z" fill="#E1E0E2"/>
<path fill-rule="evenodd" clip-rule="evenodd" d="M661 364C665.418 364 669 360.418 669 356C669 360.418 672.582 364 677 364C672.582 364 669 367.582 669 372C669 367.582 665.418 364 661 364ZM661 364C656.582 364 653 367.582 653 372C653 376.418 656.582 380 661 380C665.418 380 669 376.418 669 372C669 376.418 672.582 380 677 380C681.418 380 685 376.418 685 372C685 367.582 681.418 364 677 364C681.418 364 685 360.418 685 356C685 351.582 681.418 348 677 348C672.582 348 669 351.582 669 356C669 351.582 665.418 348 661 348C656.582 348 653 351.582 653 356C653 360.418 656.582 364 661 364ZM669 356C669 351.582 665.418 348 661 348C656.582 348 653 351.582 653 356C653 360.418 656.582 364 661 364C656.582 364 653 367.582 653 372C653 376.418 656.582 380 661 380C665.418 380 669 376.418 669 372C669 376.418 672.582 380 677 380C681.418 380 685 376.418 685 372C685 367.582 681.418 364 677 364C681.418 364 685 360.418 685 356C685 351.582 681.418 348 677 348C672.582 348 669 351.582 669 356Z" fill="#E1E0E2"/>
</svg>
