<svg width="721" height="55" viewBox="0 0 721 55" fill="none" xmlns="http://www.w3.org/2000/svg">
<path d="M714 25L16 25" stroke="#E1E0E2"/>
<path fill-rule="evenodd" clip-rule="evenodd" d="M8 25C12.4183 25 16 21.4183 16 17C16 21.4183 19.5817 25 24 25C19.5817 25 16 28.5817 16 33C16 28.5817 12.4183 25 8 25ZM8 25C3.58172 25 0 28.5817 0 33C0 37.4183 3.58172 41 8 41C12.4183 41 16 37.4183 16 33C16 37.4183 19.5817 41 24 41C28.4183 41 32 37.4183 32 33C32 28.5817 28.4183 25 24 25C28.4183 25 32 21.4183 32 17C32 12.5817 28.4183 9 24 9C19.5817 9 16 12.5817 16 17C16 12.5817 12.4183 9 8 9C3.58172 9 0 12.5817 0 17C0 21.4183 3.58172 25 8 25ZM16 17C16 12.5817 12.4183 9 8 9C3.58172 9 0 12.5817 0 17C0 21.4183 3.58172 25 8 25C3.58172 25 0 28.5817 0 33C0 37.4183 3.58172 41 8 41C12.4183 41 16 37.4183 16 33C16 37.4183 19.5817 41 24 41C28.4183 41 32 37.4183 32 33C32 28.5817 28.4183 25 24 25C28.4183 25 32 21.4183 32 17C32 12.5817 28.4183 9 24 9C19.5817 9 16 12.5817 16 17Z" fill="#E1E0E2"/>
<path d="M704 16L26 16" stroke="#E1E0E2"/>
<path fill-rule="evenodd" clip-rule="evenodd" d="M18 16C22.4183 16 26 12.4183 26 8C26 12.4183 29.5817 16 34 16C29.5817 16 26 19.5817 26 24C26 19.5817 22.4183 16 18 16ZM18 16C13.5817 16 10 19.5817 10 24C10 28.4183 13.5817 32 18 32C22.4183 32 26 28.4183 26 24C26 28.4183 29.5817 32 34 32C38.4183 32 42 28.4183 42 24C42 19.5817 38.4183 16 34 16C38.4183 16 42 12.4183 42 8C42 3.58172 38.4183 0 34 0C29.5817 0 26 3.58172 26 8C26 3.58172 22.4183 0 18 0C13.5817 0 10 3.58172 10 8C10 12.4183 13.5817 16 18 16ZM26 8C26 3.58172 22.4183 0 18 0C13.5817 0 10 3.58172 10 8C10 12.4183 13.5817 16 18 16C13.5817 16 10 19.5817 10 24C10 28.4183 13.5817 32 18 32C22.4183 32 26 28.4183 26 24C26 28.4183 29.5817 32 34 32C38.4183 32 42 28.4183 42 24C42 19.5817 38.4183 16 34 16C38.4183 16 42 12.4183 42 8C42 3.58172 38.4183 0 34 0C29.5817 0 26 3.58172 26 8Z" fill="#E1E0E2"/>
<path fill-rule="evenodd" clip-rule="evenodd" d="M697 39C701.418 39 705 35.4183 705 31C705 35.4183 708.582 39 713 39C708.582 39 705 42.5817 705 47C705 42.5817 701.418 39 697 39ZM697 39C692.582 39 689 42.5817 689 47C689 51.4183 692.582 55 697 55C701.418 55 705 51.4183 705 47C705 51.4183 708.582 55 713 55C717.418 55 721 51.4183 721 47C721 42.5817 717.418 39 713 39C717.418 39 721 35.4183 721 31C721 26.5817 717.418 23 713 23C708.582 23 705 26.5817 705 31C705 26.5817 701.418 23 697 23C692.582 23 689 26.5817 689 31C689 35.4183 692.582 39 697 39ZM705 31C705 26.5817 701.418 23 697 23C692.582 23 689 26.5817 689 31C689 35.4183 692.582 39 697 39C692.582 39 689 42.5817 689 47C689 51.4183 692.582 55 697 55C701.418 55 705 51.4183 705 47C705 51.4183 708.582 55 713 55C717.418 55 721 51.4183 721 47C721 42.5817 717.418 39 713 39C717.418 39 721 35.4183 721 31C721 26.5817 717.418 23 713 23C708.582 23 705 26.5817 705 31Z" fill="#E1E0E2"/>
<path fill-rule="evenodd" clip-rule="evenodd" d="M679 39C683.418 39 687 35.4183 687 31C687 35.4183 690.582 39 695 39C690.582 39 687 42.5817 687 47C687 42.5817 683.418 39 679 39ZM679 39C674.582 39 671 42.5817 671 47C671 51.4183 674.582 55 679 55C683.418 55 687 51.4183 687 47C687 51.4183 690.582 55 695 55C699.418 55 703 51.4183 703 47C703 42.5817 699.418 39 695 39C699.418 39 703 35.4183 703 31C703 26.5817 699.418 23 695 23C690.582 23 687 26.5817 687 31C687 26.5817 683.418 23 679 23C674.582 23 671 26.5817 671 31C671 35.4183 674.582 39 679 39ZM687 31C687 26.5817 683.418 23 679 23C674.582 23 671 26.5817 671 31C671 35.4183 674.582 39 679 39C674.582 39 671 42.5817 671 47C671 51.4183 674.582 55 679 55C683.418 55 687 51.4183 687 47C687 51.4183 690.582 55 695 55C699.418 55 703 51.4183 703 47C703 42.5817 699.418 39 695 39C699.418 39 703 35.4183 703 31C703 26.5817 699.418 23 695 23C690.582 23 687 26.5817 687 31Z" fill="#E1E0E2"/>
<path fill-rule="evenodd" clip-rule="evenodd" d="M661 39C665.418 39 669 35.4183 669 31C669 35.4183 672.582 39 677 39C672.582 39 669 42.5817 669 47C669 42.5817 665.418 39 661 39ZM661 39C656.582 39 653 42.5817 653 47C653 51.4183 656.582 55 661 55C665.418 55 669 51.4183 669 47C669 51.4183 672.582 55 677 55C681.418 55 685 51.4183 685 47C685 42.5817 681.418 39 677 39C681.418 39 685 35.4183 685 31C685 26.5817 681.418 23 677 23C672.582 23 669 26.5817 669 31C669 26.5817 665.418 23 661 23C656.582 23 653 26.5817 653 31C653 35.4183 656.582 39 661 39ZM669 31C669 26.5817 665.418 23 661 23C656.582 23 653 26.5817 653 31C653 35.4183 656.582 39 661 39C656.582 39 653 42.5817 653 47C653 51.4183 656.582 55 661 55C665.418 55 669 51.4183 669 47C669 51.4183 672.582 55 677 55C681.418 55 685 51.4183 685 47C685 42.5817 681.418 39 677 39C681.418 39 685 35.4183 685 31C685 26.5817 681.418 23 677 23C672.582 23 669 26.5817 669 31Z" fill="#E1E0E2"/>
</svg>
