<?xml version="1.0" encoding="UTF-8"?>
<svg id="Layer_2" data-name="Layer 2" xmlns="http://www.w3.org/2000/svg" viewBox="0 0 98.5 94.82">
  <g id="Layer_1-2" data-name="Layer 1">
    <g>
      <g>
        <path d="m60.93,86.4c-.33,1.84-1.55,3.55-4.29,3.55-3.4,0-4.68-2.56-4.68-5.96,0-3.06,1.5-5.82,4.76-5.82,2.72,0,3.95,1.67,4.15,3.57h-1.59c-.28-1.26-.93-2.24-2.61-2.24-2.19,0-3.06,2.14-3.06,4.49s.71,4.63,3.07,4.63c1.67,0,2.33-1.02,2.66-2.23h1.59Z"/>
        <path d="m65.66,78.33h1.59v10.11h5.44l-.21,1.34h-6.82v-11.46Z"/>
        <path d="m78.22,78.33v7.29c0,1.72.61,3,2.58,3s2.54-1.22,2.54-3.01v-7.28h1.63v7.34c0,2.41-1,4.28-4.2,4.28-3,0-4.15-1.59-4.15-4.21v-7.41h1.61Z"/>
        <path d="m90.51,78.33h4.08c2.15,0,3.4,1.11,3.4,2.84,0,1.5-.91,2.15-1.59,2.38.8.29,1.96,1.05,1.96,2.83,0,2.19-1.61,3.4-3.9,3.4h-3.95v-11.46Zm3.74,4.68c1.55,0,2.17-.61,2.17-1.71,0-1.03-.68-1.72-2.06-1.72h-2.29v3.42h2.17Zm-2.17,5.52h2.26c1.37,0,2.41-.66,2.41-2.13,0-1.33-.83-2.12-2.55-2.12h-2.11v4.25Z"/>
      </g>
      <path d="m96.55,54.13s0,0,0,0c-1.43-4.12-9.01-16.22-11.19-19.66,3.78-1.23,6.74-2.96,8.87-5.21,2.72-2.87,4.14-6.71,4.27-11.52.06-2.35-.27-4.57-1-6.66-.73-2.1-1.83-3.94-3.31-5.52-1.47-1.58-3.18-2.8-5.13-3.65-1.61-.76-3.42-1.27-5.45-1.52-2.02-.25-4.46-.37-7.32-.37h-20.7c-1.04,0-1.97.04-2.8.15-1.74.33-3.88,1.43-3.88,4.99,0,4.69,4.47,4.69,4.48,4.69h6.87s0-.02,0-.02h11.74c4.37,0,7.29.32,8.76.97,1.55.68,2.76,1.69,3.61,3.06.85,1.36,1.25,2.94,1.2,4.73-.06,2.29-.66,4.08-1.79,5.39-1.13,1.31-2.75,2.23-4.85,2.77-2.1.54-4.68.81-7.74.81h-11.4s0-.02,0-.02l-10.92.19s-.06,0-.09,0c-.05,0-.1,0-.15.01h-.16s0,.01,0,.01c-1.33.05-2.4.4-3.19,1.07-.85.73-1.46,1.54-1.83,2.44-.37.9-.92,2.5-1.65,4.8l-14.07,43.83-14.27-43.44c-.95-3.01-1.87-5.19-2.77-6.56-.9-1.37-2.43-2.05-4.59-2.04-1.76,0-3.22.63-4.39,1.87C.57,30.93,0,32.3,0,33.81c0,.59.1,1.31.28,2.17.19.85.42,1.65.69,2.39.27.74.54,1.49.79,2.25l14.99,41.98c.54,1.62,1.09,3.15,1.63,4.6.54,1.44,1.18,2.73,1.91,3.87.73,1.13,1.68,2.05,2.86,2.73,1.18.69,2.62,1.03,4.33,1.03,1.7,0,3.15-.36,4.32-1.07,1.18-.71,2.12-1.62,2.83-2.73.71-1.11,1.33-2.39,1.86-3.85.54-1.46,1.07-3,1.61-4.63l15.02-42.42c.16-.47.31-.92.47-1.37.29-.63.97-1.56,2.47-1.54,3.1.06,10.13-.21,13.92.26.44.1.83.21,1.13.33,1.47.62,2.13,1.07,3.42,2.99,1.48,2.23,2.31,3.85,4.06,7.05l4.9,9.42c1.15,2.05,2.06,3.61,2.73,4.66.67,1.06,1.49,1.93,2.44,2.62.95.69,2.14,1.03,3.57,1.03,1.2,0,2.26-.24,3.19-.73.93-.48,1.67-1.14,2.22-1.98.55-.84.84-1.68.86-2.53.02-.82-.39-2.32-1.23-4.51-.21-.55-.45-1.12-.71-1.71Z"/>
    </g>
  </g>
</svg>