<?xml version="1.0" encoding="UTF-8"?>
<svg id="Layer_2" data-name="Layer 2" xmlns="http://www.w3.org/2000/svg" viewBox="0 0 110.61 95.91">
  <g id="Layer_1-2" data-name="Layer 1">
    <path d="m96.55,54.13s0,0,0,0c-1.43-4.12-9.01-16.22-11.19-19.66,3.78-1.23,6.74-2.96,8.87-5.21,2.72-2.87,4.14-6.71,4.27-11.52.06-2.35-.27-4.57-1-6.66-.73-2.1-1.83-3.94-3.31-5.52-1.47-1.58-3.18-2.8-5.13-3.65-1.61-.76-3.42-1.27-5.45-1.52-2.02-.25-4.46-.37-7.32-.37h-20.7c-1.04,0-1.97.04-2.8.15-1.74.33-3.88,1.43-3.88,4.99,0,4.69,4.47,4.69,4.48,4.69h6.87s0-.02,0-.02h11.74c4.37,0,7.29.32,8.76.97,1.55.68,2.76,1.69,3.61,3.06.85,1.36,1.25,2.94,1.2,4.73-.06,2.29-.66,4.08-1.79,5.39-1.13,1.31-2.75,2.23-4.85,2.77-2.1.54-4.68.81-7.74.81h-11.4s0-.02,0-.02l-10.92.19s-.06,0-.09,0c-.05,0-.1,0-.15.01h-.16s0,.01,0,.01c-1.33.05-2.4.4-3.19,1.07-.85.73-1.46,1.54-1.83,2.44-.37.9-.92,2.5-1.65,4.8l-14.07,43.83-14.27-43.44c-.95-3.01-1.87-5.19-2.77-6.56-.9-1.37-2.43-2.05-4.59-2.04-1.76,0-3.22.63-4.39,1.87C.57,30.93,0,32.3,0,33.81c0,.59.1,1.31.28,2.17.19.85.42,1.65.69,2.39.27.74.54,1.49.79,2.25l14.99,41.98c.54,1.62,1.09,3.15,1.63,4.6.54,1.44,1.18,2.73,1.91,3.87.73,1.13,1.68,2.05,2.86,2.73,1.18.69,2.62,1.03,4.33,1.03,1.7,0,3.15-.36,4.32-1.07,1.18-.71,2.12-1.62,2.83-2.73.71-1.11,1.33-2.39,1.86-3.85.54-1.46,1.07-3,1.61-4.63l15.02-42.42c.16-.47.31-.92.47-1.37.29-.63.97-1.56,2.47-1.54,3.1.06,10.13-.21,13.92.26.44.1.83.21,1.13.33,1.47.62,2.13,1.07,3.42,2.99,1.48,2.23,2.31,3.85,4.06,7.05l4.9,9.42c1.15,2.05,2.06,3.61,2.73,4.66.67,1.06,1.49,1.93,2.44,2.62.95.69,2.14,1.03,3.57,1.03,1.2,0,2.26-.24,3.19-.73.93-.48,1.67-1.14,2.22-1.98.55-.84.84-1.68.86-2.53.02-.82-.39-2.32-1.23-4.51-.21-.55-.45-1.12-.71-1.71Z"/>
    <g>
      <path d="m108.98,88.6c-.62-.37-.45-.59.01-.91.74-.52,1.25-1.19,1.44-2.11.54-2.55-.97-4.69-3.56-4.98-2.69-.29-5.39-.1-8.08-.14-1.12-.02-1.43.32-1.43,1.45-.02,2.09,0,4.19,0,6.29h.01c0,2.07,0,4.14,0,6.22,0,1.18.28,1.45,1.48,1.46,2.42.02,4.84.01,7.26,0,.79,0,1.53-.25,2.27-.53,2.64-1.03,3.06-5.3.6-6.76Zm-8.44-5.58h2.69c.92.01,1.85-.04,2.76.02,1.44.09,2.22,1.22,1.86,2.61-.19.73-.65,1.22-1.43,1.31-1.99.26-4,.06-6,.12-.41.01-.57-.28-.58-.63-.03-.97-.04-1.93-.03-2.9,0-.47.35-.54.73-.54Zm5.3,10.32c-.85.02-1.7,0-2.56,0-.92,0-1.84-.01-2.76,0-.47.01-.69-.21-.7-.65-.01-.99-.01-1.98,0-2.97,0-.39.23-.6.61-.59,1.91.05,3.82-.14,5.73.12,1.28.17,1.93.95,1.86,2.14-.06,1.15-.92,1.92-2.17,1.95Z"/>
      <path d="m92.19,86.42v4.42c0,3.42-1.55,5-4.95,5.06-1.15.02-2.3.01-3.46-.01-3.06-.05-4.63-1.41-4.73-4.45-.12-3.43-.03-6.86-.04-10.29,0-.5.25-.7.73-.69,1.9.07,1.83-.3,1.83,1.75,0,2.67,0,5.34,0,8.02,0,.07,0,.13,0,.21.04,2.12.84,2.91,2.96,2.9.78,0,1.56,0,2.35,0,2.05-.02,2.85-.79,2.87-2.84.02-2.02,0-4.05,0-6.07,0-1.06.01-2.12-.01-3.18,0-.55.21-.79.78-.78,1.78.06,1.67-.23,1.67,1.6v4.35h0Z"/>
      <path d="m73.83,95.9c-1.61,0-3.22.01-4.83-.02-3.35-.06-5.18-1.73-5.3-5.06-.12-3.17-.03-6.35-.03-9.53,0-.6.27-.85.89-.84,1.73.04,1.64-.21,1.64,1.64,0,1.26,0,2.53,0,3.8,0,1.43-.02,2.85,0,4.28.03,2.19.93,3.11,3.13,3.15,1.73.03,3.45,0,5.18.02.89,0,.96.07.95.93-.01,1.79.19,1.62-1.64,1.63Z"/>
      <path d="m59.14,94.23c0,1.81.24,1.66-1.65,1.68-.71,0-1.43,0-2.14,0v-.06c-1.1,0-2.22.11-3.31-.02-3.2-.38-5.08-2.2-5.56-5.39-.26-1.66-.26-3.36.08-5.02.6-2.95,2.86-4.8,6.01-4.92,1.93-.07,3.87-.02,5.8-.03.55,0,.79.2.78.78-.04,2.02.21,1.78-1.76,1.79-1.48.01-2.95-.01-4.42.01-2.46.04-3.87,1.41-4.07,3.88-.08,1.13-.11,2.26.14,3.36.49,2.09,1.63,3.01,3.77,3.05,1.8.04,3.59.02,5.39.02.87,0,.93.06.93.88Z"/>
    </g>
  </g>
</svg>