<?xml version="1.0" encoding="utf-8"?>
<!-- Generator: Adobe Illustrator 27.6.1, SVG Export Plug-In . SVG Version: 6.00 Build 0)  -->
<svg version="1.1" id="Layer_2_00000104706673405778173050000016994791655086587037_"
	 xmlns="http://www.w3.org/2000/svg" xmlns:xlink="http://www.w3.org/1999/xlink" x="0px" y="0px" viewBox="0 0 98.5 94.8"
	 style="enable-background:new 0 0 98.5 94.8;" xml:space="preserve">
<g id="Layer_1-2">
	<g>
		<path d="M96.6,54.1L96.6,54.1c-1.4-4.1-9-16.2-11.2-19.7c3.8-1.2,6.7-3,8.9-5.2c2.7-2.9,4.1-6.7,4.3-11.5c0.1-2.4-0.3-4.6-1-6.7
			c-0.7-2.1-1.8-3.9-3.3-5.5C92.7,4,91,2.8,89.1,1.9c-1.6-0.8-3.4-1.3-5.4-1.5c-2-0.2-4.5-0.4-7.3-0.4H55.6c-1,0-2,0-2.8,0.2
			c-1.7,0.3-3.9,1.4-3.9,5c0,4.7,4.5,4.7,4.5,4.7h6.9v0H72c4.4,0,7.3,0.3,8.8,1c1.6,0.7,2.8,1.7,3.6,3.1c0.8,1.4,1.2,2.9,1.2,4.7
			c-0.1,2.3-0.7,4.1-1.8,5.4s-2.8,2.2-4.8,2.8s-4.7,0.8-7.7,0.8H59.8v0l-10.9,0.2c0,0-0.1,0-0.1,0c0,0-0.1,0-0.2,0h-0.2v0
			c-1.3,0-2.4,0.4-3.2,1.1c-0.8,0.7-1.5,1.5-1.8,2.4c-0.4,0.9-0.9,2.5-1.7,4.8L27.7,79.9L13.5,36.5c-0.9-3-1.9-5.2-2.8-6.6
			c-0.9-1.4-2.4-2-4.6-2c-1.8,0-3.2,0.6-4.4,1.9C0.6,30.9,0,32.3,0,33.8c0,0.6,0.1,1.3,0.3,2.2c0.2,0.8,0.4,1.7,0.7,2.4
			c0.3,0.7,0.5,1.5,0.8,2.2l15,42c0.5,1.6,1.1,3.2,1.6,4.6c0.5,1.4,1.2,2.7,1.9,3.9c0.7,1.1,1.7,2.1,2.9,2.7c1.2,0.7,2.6,1,4.3,1
			c1.7,0,3.1-0.4,4.3-1.1c1.2-0.7,2.1-1.6,2.8-2.7s1.3-2.4,1.9-3.8c0.5-1.5,1.1-3,1.6-4.6l15-42.4c0.2-0.5,0.3-0.9,0.5-1.4
			c0.3-0.6,1-1.6,2.5-1.5c3.1,0.1,10.1-0.2,13.9,0.3c0.4,0.1,0.8,0.2,1.1,0.3c1.5,0.6,2.1,1.1,3.4,3c1.5,2.2,2.3,3.8,4.1,7l4.9,9.4
			c1.2,2,2.1,3.6,2.7,4.7c0.7,1.1,1.5,1.9,2.4,2.6c0.9,0.7,2.1,1,3.6,1c1.2,0,2.3-0.2,3.2-0.7c0.9-0.5,1.7-1.1,2.2-2
			s0.8-1.7,0.9-2.5c0-0.8-0.4-2.3-1.2-4.5C97.1,55.3,96.8,54.7,96.6,54.1L96.6,54.1z"/>
	</g>
</g>
</svg>
