<?xml version="1.0" encoding="utf-8"?>
<!-- Generator: Adobe Illustrator 27.7.0, SVG Export Plug-In . SVG Version: 6.00 Build 0)  -->
<svg version="1.1" id="Layer_1" xmlns="http://www.w3.org/2000/svg" xmlns:xlink="http://www.w3.org/1999/xlink" x="0px" y="0px"
	 viewBox="0 0 2697 1118" style="enable-background:new 0 0 2697 1118;" xml:space="preserve">
<style type="text/css">
	.st0{fill-rule:evenodd;clip-rule:evenodd;fill:#E1E0E2;}
</style>
<path class="st0" d="M298,0.6c-20.1,1.9-27.7,2.8-41,4.9C159.1,21.3,84.2,68.2,49.6,135.5c-13.9,27-21,55.6-22.3,89.5
	c-1.9,51.2,11.8,96.9,40.5,134.3c29.5,38.5,75.3,70.8,145.7,102.7c9.9,4.5,39.5,17.1,65.9,28.1c54.3,22.6,70.2,29.6,91.4,40.2
	c45.2,22.6,74.6,44.9,92.3,69.8c7.2,10.2,15.4,27.4,18.5,39.3c3.6,13.4,4.5,38.3,2,51.9c-11.5,60.9-74.2,114.1-155.6,131.8
	c-9.5,2.1-13,2.3-37.5,2.3c-22.2,0-29.9-0.4-43.5-2.3c-47-6.3-94.4-19.9-127.3-36.3c-29.9-14.9-61-37.4-87.3-63.1l-12.1-11.8
	l-10.1,1.7C2.8,714.8,0,715.7,0,716.7c0,1.1,43.4,166.8,49.7,189.5l1.6,5.8l6.6,0c6.5,0,6.6-0.1,9.3-3.9c1.5-2.1,4.7-5.1,7.1-6.5
	c7.4-4.3,12-4.3,30.2,0.3C155,914.5,199.2,920.7,255,923c85.4,3.5,160.9-10.9,224-42.5c32-16.1,58.4-35,83.1-59.5
	c23.3-23.1,38.2-43.7,52.3-72c23.7-47.7,31-98.6,21.1-147.8c-12.1-60.3-51.5-109.5-121-151.2c-34.2-20.6-62.7-34-143-67.8
	c-20.9-8.8-46.1-19.7-56-24.1c-90.6-41.1-128.6-77.4-134.6-128.8c-1.3-11.1,0-27.3,3.1-39.5c12.6-49.1,60.7-84.3,130.6-95.3
	c14-2.2,46.4-3,62.2-1.5c25,2.3,52.8,8.1,72.8,15.1c21.7,7.6,51.5,24.7,74.5,43c12.3,9.7,31,28.3,36,35.8l3.5,5.2l12.8,0
	c11.8,0,12.8-0.1,12.3-1.7C587.8,187.6,541,12.9,541,12.4c0-0.2-4-0.4-8.8-0.4c-8.1,0-9,0.2-11.2,2.5c-1.3,1.4-4.6,3.2-7.4,4
	c-8.5,2.5-18,1.9-36.9-2.5C426.6,4.5,383.9-0.1,330.5,0.2C314.5,0.2,299.9,0.5,298,0.6 M1428,0.6c-1.9,0.2-10.2,1.1-18.5,2
	c-57.3,6-112.5,24.3-153.2,50.6c-55,35.5-87.9,85.6-96.9,147.5c-2.4,16.3-2.4,49.4,0,65.7c11.6,79,60.4,134.9,161.1,184.6
	c22.9,11.3,45.7,21.3,90.5,39.8c56.3,23.3,80.5,34.1,103.5,46.5c26.4,14.2,44.6,27,60.8,42.6c21.1,20.4,32.3,40,38,66.1
	c2.7,12.8,2.9,34.9,0.3,47c-9.4,44.2-45,84.6-97,109.9c-23.7,11.6-44.4,18.2-67.7,21.6c-21.9,3.2-64.9,0.8-98.4-5.6
	c-27.8-5.3-67.2-17.1-88.6-26.4c-33.1-14.5-69.8-40-100.4-69.7l-11-10.7l-10.2,1.6c-5.6,0.9-10.2,2.1-10.2,2.6s11.6,44.8,25.7,98.3
	l25.7,97.3h6.7c6.5,0,6.8-0.1,8.8-3.4c2.9-4.7,8.8-8.5,15.2-9.8c4.4-0.9,6.7-0.9,11.9,0.4c3.6,0.8,14.3,3.4,23.8,5.7
	c77.8,18.5,166.3,23.6,237.7,13.5c63.1-8.9,124.5-32.7,170.5-66.2c86.4-62.9,128.2-159,109.5-251.7c-11.1-55-44.9-100.3-104.5-140
	c-36.8-24.5-67.8-39.8-158-77.8c-77.1-32.5-106.2-47.1-136.5-68.5c-12.3-8.7-33.9-30.9-40.4-41.5c-10.4-16.9-15.1-33.7-15.1-54
	c0-32.4,10.5-57.3,33.3-79.4c23.6-22.8,57-37.6,101.2-45c16.9-2.8,58.7-2.5,78.5,0.5c33.3,5.1,57,12.2,80.5,24.1
	c32.3,16.3,67.2,43.5,84.2,65.7l5.6,7.3h12.4c6.8,0,12.4-0.2,12.4-0.4c0-0.4-46.8-175.3-47.6-177.9c-0.5-1.5-1.8-1.7-9.2-1.7
	c-7.9,0-8.9,0.2-11,2.5c-5.8,6.1-21,7.1-39.7,2.6c-28.7-7-55.6-11.5-88-14.7C1508.5,0.9,1436.9-0.4,1428,0.6 M739,24.3v11.3
	L772.6,52c35.6,17.4,40.1,20.2,44.6,28.6c6.3,11.7,5.9-18.3,5.5,357.4c-0.4,371,0,348.1-5.7,392.3c-8.5,66.4-27.3,116-59,156.1
	c-8.1,10.2-27,29-38,37.8c-31.1,24.8-72.1,46.7-121.5,64.7l-13,4.7l-0.3,12.1l-0.3,12.1h9.3c11.3,0,37.1-2.3,56.2-5.1
	c97.8-14.1,174.7-47.1,220.5-94.5c56.7-58.8,86.1-142.6,94-267.9c0.6-10.1,1-132.9,1-333.7c0-230,0.3-319.2,1.1-323
	c1.6-7.5,5.7-15.4,10.6-20.4c3.5-3.6,10.4-7.3,38.8-21.3l34.6-16.9V24.1V13H895H739V24.3 M1841.8,14.7l-10.8,0.3v10.8v10.8l34,16.7
	c35.4,17.4,39.9,20.2,44.6,28.3c6.3,10.8,5.8-13,6.4,284.8c0.6,276.9,0.7,281,4.5,311c8.1,63.7,30.3,111.6,69.9,151
	c39.4,39.2,89,63.8,158.5,78.4c84.4,17.8,168.9,18,238,0.6c63-15.9,115.4-43.1,151.2-78.7c40.6-40.3,63.4-91,70.7-156.8
	c2.9-26.5,3.2-45.3,3.7-304.5c0.6-287,0.3-272.4,5.5-283.2c1.1-2.3,3.8-6.2,6-8.7c3.6-4,8-6.5,38.5-21.5l34.4-16.9V26.2V15.3
	l-15.2-0.7c-19.7-0.9-253.9-0.9-273.7,0l-15.2,0.7v10.9V37l33.8,16.5c34.6,17,38.6,19.4,43.8,27.6c1.3,2,3.2,6.3,4.3,9.5
	c1.9,5.7,2,11.4,2.3,252.8c0.4,261,0.4,255.4-4.2,288.7c-15.3,110-68.4,177-154,194.2c-46.2,9.3-99.8,6.1-137.7-8
	c-66.6-24.9-108.5-84.2-123.7-175.4c-6.3-37.5-5.9-22.8-6.3-293.5c-0.3-183.7-0.1-248.5,0.8-253c1.6-8.4,5.5-16.2,11-21.6
	c3.9-3.9,10.3-7.4,38.8-21.4l34.2-16.8V26V15.3l-15.2-0.7C2106.1,14,1863.4,14.1,1841.8,14.7"/>
</svg>
